<svg width="554" height="554" viewBox="0 0 554 554" fill="none" xmlns="http://www.w3.org/2000/svg">
<path d="M321.607 319.126L244.634 286.732L184.589 327.246L216.473 340.629C215.802 341.163 215.082 341.634 214.324 342.036C213.06 342.557 211.74 342.929 210.391 343.144C207.71 343.642 204.408 343.565 202.503 344.85C199.512 346.866 201.871 350.522 207.743 353.148L208.264 353.369C214.523 356.006 222.09 356.46 225.158 354.389C227.662 352.694 225.734 350.024 227.23 348.063C227.994 347.351 228.829 346.72 229.723 346.179L261.529 359.64L286.411 342.845L286.09 342.701C285.009 342.23 283.899 341.831 282.766 341.504C279.055 340.684 274.048 341.67 270.846 340.33C266.924 338.58 267.722 334.613 272.552 331.356C277.382 328.099 284.583 326.737 288.527 328.398C290.964 329.506 290.876 331.201 291.851 332.608C292.43 333.46 293.186 334.178 294.066 334.713C294.426 334.914 294.795 335.095 295.174 335.256C295.64 335.466 296.193 335.699 296.714 335.876L321.607 319.126Z" fill="#9DAAD3"/>
<path d="M239.904 432.846C237.965 431.539 234.619 431.617 231.894 431.118C230.521 430.885 229.179 430.495 227.895 429.955C227.114 429.548 226.372 429.069 225.679 428.526L258.117 414.855L232.869 397.827L233.19 397.672C234.274 397.204 235.384 396.797 236.514 396.454C240.281 395.623 245.377 396.631 248.756 395.202C252.611 393.485 251.802 389.463 246.894 386.151C241.987 382.838 234.708 381.453 230.543 383.193C228.172 384.245 228.272 385.984 227.308 387.414C226.727 388.273 225.972 389.002 225.092 389.552C224.732 389.759 224.363 389.947 223.984 390.117C223.508 390.327 222.943 390.56 222.433 390.737L197.152 373.676L118.839 406.635L179.881 447.813L212.252 434.198C213.157 434.749 214.004 435.391 214.778 436.114C216.285 438.109 214.335 440.823 216.872 442.54C219.996 444.645 227.684 444.18 234.043 441.51L234.575 441.277C240.546 438.618 242.939 434.896 239.904 432.846Z" fill="#9DAAD3"/>
<path d="M300.425 356.05L332.797 342.435C333.704 342.983 334.551 343.625 335.322 344.351C336.84 346.346 334.89 349.06 337.427 350.777C340.551 352.882 348.24 352.428 354.599 349.747L355.12 349.525C361.102 346.855 363.495 343.133 360.459 341.083C358.51 339.776 355.164 339.854 352.439 339.355C351.064 339.127 349.722 338.737 348.439 338.192C347.658 337.786 346.916 337.308 346.224 336.763L378.628 323.136L439.67 364.315L361.456 397.24L336.209 380.201L336.519 380.057C337.603 379.587 338.713 379.176 339.842 378.828C343.609 378.008 348.705 379.016 351.962 377.642C355.939 375.87 355.131 371.837 350.223 368.525C345.315 365.212 338.037 363.827 333.993 365.522C331.5 366.63 331.6 368.37 330.669 369.799C330.088 370.658 329.334 371.387 328.454 371.937C328.332 372.003 327.878 372.236 327.346 372.491C326.814 372.746 326.316 372.934 325.795 373.111L300.425 356.05Z" fill="#9DAAD3"/>
<path d="M404.685 445.498L372.834 432.093C371.944 432.638 371.113 433.273 370.353 433.987C368.868 435.948 370.785 438.618 368.292 440.302C365.212 442.384 357.646 441.93 351.386 439.294L350.866 439.072C344.994 436.446 342.634 432.791 345.625 430.774C347.531 429.478 350.832 429.567 353.513 429.068C354.864 428.858 356.184 428.486 357.446 427.96C358.205 427.564 358.924 427.096 359.595 426.564L327.712 413.148L302.84 429.932C302.32 429.755 301.733 429.533 301.301 429.323C300.868 429.112 300.292 428.847 300.193 428.78C299.317 428.239 298.563 427.522 297.977 426.675C297.024 425.268 297.124 423.551 294.797 422.51C290.732 420.804 283.586 422.133 278.7 425.423C273.815 428.714 273.073 432.647 276.873 434.286C280.196 435.693 285.215 434.696 288.915 435.516C290.025 435.855 291.116 436.254 292.183 436.712L292.504 436.867L267.655 453.629L344.617 486.011L404.685 445.498Z" fill="#9DAAD3"/>
<path d="M223.596 313.01C223.596 323.812 203.921 332.575 179.637 332.575C155.353 332.575 135.667 323.812 135.667 313.01C135.667 302.209 155.353 293.446 179.637 293.446C203.921 293.446 223.596 302.198 223.596 313.01Z" fill="#9DAAD3"/>
<path d="M191.469 311.703L192.189 311.57L192.909 305.51L191.015 303.272L191.469 311.703Z" fill="#561136"/>
<path d="M190.594 311.205L191.469 311.703L191.325 301.788L189.796 301.445L190.594 311.205Z" fill="#151F34"/>
<path d="M197.274 298.73L198.88 304.048C198.88 304.048 201.096 309.166 202.88 311.183C202.88 311.183 206.137 315.614 200.044 315.348C200.044 315.348 193.541 315.005 193.64 310.839C193.718 307.25 190.428 302.796 190.428 302.796C190.031 302.13 189.858 301.355 189.934 300.583C190.01 299.812 190.33 299.085 190.848 298.509L191.956 297.224L197.418 296.271L197.274 298.73Z" fill="#E69376"/>
<path d="M203.223 312.833C201.963 313.055 200.669 312.979 199.444 312.611C198.219 312.244 197.096 311.595 196.166 310.717C194.482 309.056 192.555 302.962 193.186 304.99C193.452 305.821 191.469 298.409 192.001 297.235L190.893 298.52C190.346 299.107 189.999 299.852 189.902 300.648C189.804 301.444 189.961 302.25 190.35 302.951C190.35 302.951 193.762 307.294 193.673 310.884C193.574 315.049 200.077 315.392 200.077 315.392C203.733 315.581 204.021 314.041 203.666 312.778C203.5 312.778 203.356 312.8 203.223 312.833Z" fill="#151F34"/>
<path d="M206.281 314.617C206.281 314.617 207.2 316.345 204.287 316.345C204.287 316.345 193.374 315.658 193.386 310.972V307.194C193.386 307.194 194.25 312.578 200.985 312.59C200.985 312.59 203.976 312.59 202.437 310.684L206.281 314.617Z" fill="#151F34"/>
<path d="M188.721 61.9838C188.721 63.4211 188.295 64.8262 187.497 66.0214C186.698 67.2165 185.563 68.148 184.235 68.698C182.907 69.2481 181.446 69.392 180.036 69.1116C178.626 68.8312 177.331 68.139 176.315 67.1226C175.299 66.1063 174.607 64.8113 174.326 63.4016C174.046 61.9918 174.19 60.5306 174.74 59.2026C175.29 57.8747 176.221 56.7397 177.416 55.9411C178.612 55.1425 180.017 54.7163 181.454 54.7163C183.381 54.7163 185.23 55.482 186.593 56.8449C187.956 58.2078 188.721 60.0563 188.721 61.9838V61.9838Z" fill="#1A2652"/>
<path d="M186.661 95.4518H200.963C200.32 93.369 198.969 87.9738 201.052 84.3069L186.65 74.8237C186.65 74.8237 189.176 90.7435 186.661 95.4518Z" fill="#F6A382"/>
<path d="M188.267 86.4675C188.627 87.453 189.228 88.3325 190.016 89.0254C190.804 89.7183 191.753 90.2025 192.776 90.4336C195.114 91.2074 197.606 91.3938 200.032 90.9764C199.693 88.7086 200.048 86.3911 201.052 84.3294L186.65 74.8462C186.65 74.8462 187.436 79.6986 187.758 84.8168C187.857 85.3707 188.057 85.9136 188.267 86.4675Z" fill="#E0856E"/>
<path d="M203.81 87.6193L204.564 85.4701L206.414 79.1775C206.707 78.0891 206.707 76.9425 206.414 75.854C205.86 74.1551 205.761 72.3409 206.126 70.5917C207.3 64.8309 204.741 61.8287 204.741 61.8287C201.417 56.5332 193.452 56.5664 193.452 56.5664C183.636 57.0649 182.839 66.537 182.839 66.537C181.266 72.8517 186.306 78.1029 186.317 78.1029C186.818 78.8857 187.16 79.7588 187.326 80.6731C187.661 81.5493 188.149 82.3593 188.766 83.0661C190.177 84.7138 191.883 86.085 193.795 87.1097C196.169 88.2037 198.739 88.8067 201.351 88.8822C202.392 88.8379 203.367 88.8601 203.81 87.6193Z" fill="#F6A382"/>
<path d="M158.023 312.833L158.743 312.944L161.369 307.438L160.294 304.702L158.023 312.833Z" fill="#561136"/>
<path d="M157.358 312.091L158.023 312.833L161.07 303.405L159.74 302.585L157.358 312.091Z" fill="#151F34"/>
<path d="M167.672 302.408C167.528 306.84 167.196 311.814 168.991 316.002C168.991 316.002 170.641 321.286 164.958 319.048C164.958 319.048 158.909 316.633 160.35 312.711C161.579 309.388 159.884 304.059 159.884 304.059C159.725 303.302 159.811 302.514 160.13 301.809C160.449 301.104 160.983 300.518 161.657 300.137L163.141 299.284H168.825L167.672 302.408Z" fill="#F6A382"/>
<path d="M168.791 317.674C167.522 317.48 166.316 316.99 165.271 316.243C164.226 315.496 163.371 314.514 162.776 313.376C161.668 311.26 161.834 304.868 161.79 306.984C161.79 307.87 162.266 300.204 163.141 299.284L161.657 300.137C160.959 300.519 160.398 301.111 160.055 301.828C159.711 302.546 159.601 303.353 159.74 304.137C159.74 304.137 161.579 309.343 160.35 312.711C158.909 316.633 164.958 319.048 164.958 319.048C168.37 320.389 169.135 319.048 169.201 317.719L168.791 317.674Z" fill="#151F34"/>
<path d="M171.129 320.355C171.129 320.355 171.439 322.283 168.68 321.352C168.68 321.352 158.566 317.198 160.072 312.756L161.28 309.177C161.28 309.177 160.361 314.561 166.742 316.733C166.742 316.733 169.578 317.697 168.725 315.392L171.129 320.355Z" fill="#151F34"/>
<path d="M174.009 236.237C166.753 249.631 165.479 255.07 164.183 265.273C163.429 271.189 163.684 296.138 162.909 299.86C162.576 301.4 168.448 300.558 168.448 300.558C169.556 297.944 186.594 240.624 186.594 240.624C186.594 240.624 188.5 234.686 186.916 233.655C178.895 228.471 177.111 230.409 174.009 236.237Z" fill="#F6A382"/>
<path d="M168.57 301.755C169.678 299.14 186.539 240.624 186.539 240.624C186.539 240.624 188.445 234.686 186.86 233.655C178.895 228.471 177.111 230.409 173.954 236.237C166.698 249.631 165.424 255.07 164.127 265.273C163.374 271.189 162.155 295.274 161.38 298.996C161.38 298.996 165.712 304.17 168.57 301.755Z" fill="#1E2732"/>
<path d="M206.513 139.389C206.513 139.389 212.053 162.986 211.333 165.556C209.183 172.979 189.176 183.404 170.952 168.204C170.952 168.204 175.117 150.767 183.781 135.999C183.781 135.999 186.96 139.289 206.513 139.389Z" fill="#1E2732"/>
<path d="M203.666 91.4528C203.666 91.4528 210.967 105.556 214.224 113.299C212.861 122.362 207.931 135.822 205.948 138.658C201.606 144.873 181.764 139.323 181.764 139.323L176.048 120.235C192.743 114.23 183.947 96.6486 183.947 96.6486L186.572 94.9979C186.572 94.9979 189.242 103.639 200.099 103.329C200.099 103.329 203.677 101.002 201.052 91.1426C201.931 91.169 202.805 91.2728 203.666 91.4528V91.4528Z" fill="#6651A1"/>
<path d="M185.509 171.915C185.509 171.915 187.436 209.97 194.471 230.432C195.523 233.489 207.555 229.435 207.555 229.435C207.555 229.435 213.626 196.687 213.26 183.127C213.05 175.449 210.313 158.92 210.313 158.92C210.313 158.92 187.746 155.973 185.509 171.915Z" fill="#E69376"/>
<path d="M194.815 230.299L207.555 229.435C207.555 229.435 199.722 294.399 199.013 297.135C199.013 297.135 193.541 299.107 193.651 297.534C193.917 293.745 189.353 264.586 189.22 258.615C188.987 249.032 189.364 242.972 194.815 230.299Z" fill="#E69376"/>
<path d="M185.509 171.915C185.509 171.915 187.436 209.97 194.471 230.432C195.523 233.489 207.555 229.435 207.555 229.435C207.555 229.435 213.626 196.687 213.26 183.127C213.05 175.449 210.313 158.92 210.313 158.92C210.313 158.92 187.746 155.973 185.509 171.915Z" fill="#161F29"/>
<path d="M200.598 297.534C201.883 295.03 207.555 229.435 207.555 229.435L194.815 230.299C189.364 242.972 188.987 249.032 189.209 258.615C189.353 264.586 192.244 293.745 191.979 297.534C191.979 297.534 198.903 300.835 200.598 297.534Z" fill="#161F29"/>
<path d="M226.709 137.661L217.049 102.653C213.581 93.2914 208.386 93.0698 208.386 93.0698C198.415 94.5654 204.818 112.014 204.818 112.014L217.082 141.084" fill="#E69376"/>
<path d="M254.682 163.806C250.517 160.715 250.251 159.873 249.586 158.61C246.872 153.204 253.807 154.389 255.502 155.043C256.477 155.431 256.189 157.824 258.881 161.203C258.881 161.203 263.313 164.781 264.598 164.759C264.598 164.759 265.827 165.124 265.705 166.033C265.694 166.033 261.95 167.562 254.682 163.806Z" fill="#E69376"/>
<path d="M225.956 135.678L254.228 157.07C255.015 160.97 253.22 161.247 253.22 161.247L230.421 150.866C220.66 146.646 217.259 141.782 217.259 141.782C217.259 141.782 213.271 138.038 219.619 134.293C219.619 134.238 222.511 132.576 225.956 135.678Z" fill="#E69376"/>
<path d="M254.705 154.799C254.705 154.799 253.464 157.192 256.699 157.015L260.122 155.12C260.393 155.03 260.623 154.847 260.773 154.604C260.923 154.361 260.982 154.074 260.942 153.791C260.942 153.791 260.654 153.215 259.59 153.592L254.705 154.799Z" fill="#E69376"/>
<path d="M169.943 175.095C169.943 175.095 170.087 213.16 175.106 234.22C175.859 237.356 187.292 236.436 187.292 236.436C187.292 236.436 194.781 200.442 195.734 186.904C196.266 179.249 197.795 165.855 197.795 165.855C197.795 165.855 170.985 163.152 169.943 175.095Z" fill="#F6A382"/>
<path d="M175.494 101.224C169.644 105.5 172.636 111.937 172.636 111.937L183.714 138.78C183.714 138.78 201.639 144.873 205.982 138.658C207.965 135.822 209.793 128.288 212.197 117.443C213.836 110.064 213.947 97.18 209.793 93.369C207.4 91.1534 199.656 91.1534 199.6 90.9429L187.038 94.9976L175.494 101.224Z" fill="#F6A382"/>
<path d="M199.157 136.586C200.265 136.398 205.948 138.658 205.948 138.658C205.948 138.658 210.07 156.25 210.313 158.92C210.557 161.59 192.156 175.438 171.605 167.561C171.605 167.561 181.975 143.078 183.492 137.971C185.232 132.088 199.157 136.586 199.157 136.586Z" fill="#F6A382"/>
<path d="M209.139 102.343C209.139 102.343 215.199 109.477 215.708 114.784C215.997 117.742 212.263 122.683 210.391 124.511C209.072 125.796 201.24 107.273 209.139 102.343Z" fill="#6651A1"/>
<path d="M176.635 161.723C176.635 161.723 169.39 163.341 169.988 176.613C170.63 189.585 194.238 192.278 197.274 179.216C200.597 165.146 189.519 156.904 176.635 161.723Z" fill="#1E2732"/>
<path d="M187.447 81.7367C187.447 77.3053 187.503 77.5269 187.503 77.5269C187.614 76.2196 190.173 79.0446 190.128 77.3385C189.885 69.5836 192.721 65.817 193.829 65.2187C196.47 63.7232 199.531 63.1428 202.536 63.568C206.48 64.266 206.325 69.5282 206.325 69.5282C209.649 50.296 188.245 56.4335 188.245 56.4335C185.42 57.0374 182.911 58.6485 181.186 60.9663C179.462 63.2841 178.639 66.1502 178.873 69.0297C177.588 79.5985 187.602 85.6474 187.602 85.6474L187.447 81.7367Z" fill="#2C3C70"/>
<path d="M188.134 80.208C187.744 80.5043 187.261 80.6533 186.772 80.6289C185.989 80.5533 185.265 80.1824 184.746 79.5918C184.228 79.0011 183.954 78.235 183.98 77.4494C183.945 77.0694 183.987 76.6863 184.105 76.3232C184.222 75.9601 184.412 75.6245 184.662 75.3367C184.913 75.0489 185.219 74.8148 185.563 74.6486C185.906 74.4824 186.28 74.3875 186.661 74.3696C187.014 74.3797 187.362 74.4604 187.683 74.6069C188.005 74.7534 188.294 74.9627 188.533 75.2227C188.849 75.6751 189.065 76.1898 189.166 76.7324C189.268 77.275 189.252 77.8329 189.12 78.3689C189.03 79.0826 188.679 79.7377 188.134 80.208V80.208Z" fill="#F79F7D"/>
<path d="M187.303 75.976C187.215 75.0675 185.376 75.976 185.653 76.4413C185.854 76.7243 186.106 76.9683 186.395 77.1614C186.556 77.2765 186.69 77.4254 186.787 77.5976C186.885 77.7698 186.944 77.9612 186.96 78.1584C186.96 78.1584 186.96 78.3578 186.96 78.4021C186.727 78.5683 185.952 77.682 185.774 77.4937C185.62 77.2894 185.518 77.0496 185.48 76.7962C185.441 76.5427 185.466 76.2837 185.553 76.0424C185.608 75.8245 185.741 75.6343 185.927 75.5078C186.112 75.3812 186.338 75.3271 186.561 75.3556C186.971 75.3556 187.392 75.3556 187.37 75.9206C187.37 75.9206 187.37 76.0203 187.37 75.9206L187.303 75.976Z" fill="#E98A6F"/>
<path d="M186.661 76.9619C186.849 76.7736 187.038 76.9619 187.226 77.0727C187.402 77.1998 187.521 77.3906 187.558 77.6045C187.678 78.1215 187.595 78.6648 187.326 79.1222C187.222 79.2884 187.076 79.4242 186.903 79.5157C186.73 79.6071 186.535 79.651 186.34 79.6429C185.797 79.6429 185.631 79.1333 185.608 78.668C185.608 78.5462 185.608 78.247 185.708 78.1695C185.808 78.0919 185.941 78.2913 186.029 78.38C186.158 78.4925 186.323 78.5554 186.495 78.5572C186.65 78.5629 186.805 78.5329 186.947 78.4695C187.089 78.4062 187.215 78.3111 187.314 78.1916C187.35 78.1478 187.38 78.0994 187.403 78.0476C187.403 78.3578 187.403 78.4243 187.348 78.2581C187.326 78.1796 187.292 78.1049 187.248 78.0365C187.126 77.8261 186.905 77.682 186.761 77.4826C186.617 77.2832 186.561 77.0616 186.661 76.9619Z" fill="#E98A6F"/>
<path d="M196.831 73.5276C196.886 74.0704 196.631 74.5468 196.255 74.58C195.878 74.6133 195.546 74.2033 195.49 73.6605C195.435 73.1177 195.701 72.6524 196.066 72.5527C196.432 72.453 196.775 72.9847 196.831 73.5276Z" fill="#3B2314"/>
<path d="M204.375 72.5306C204.375 73.0845 204.109 73.5387 203.744 73.5498C203.378 73.5609 203.057 73.1288 203.035 72.586C203.012 72.0432 203.301 71.5889 203.666 71.5779C204.032 71.5668 204.353 71.9656 204.375 72.5306Z" fill="#3B2314"/>
<path d="M193.574 72.7967C194.992 71.3122 198.382 71.4229 198.382 71.4229C198.382 71.4229 198.614 71.4229 198.548 70.7361C198.548 70.7361 198.548 70.1378 198.049 70.1932C197.994 70.1932 193.751 69.9163 193.574 72.7967Z" fill="#2C3C70"/>
<path d="M206.292 69.9495C204.807 68.7531 202.082 69.6837 202.082 69.6837C201.606 69.7501 201.75 70.3373 201.75 70.3373C201.872 71.0131 202.082 70.9577 202.082 70.9577C203.386 70.5719 204.759 70.4774 206.104 70.6807C206.137 70.437 206.236 70.1933 206.292 69.9495Z" fill="#2C3C70"/>
<path d="M203.422 80.4183L198.049 81.4154C197.761 81.4154 197.65 81.6369 197.806 81.781C198.191 82.2636 198.7 82.6323 199.279 82.8474C199.858 83.0626 200.484 83.1161 201.091 83.0022C201.698 82.8884 202.262 82.6114 202.724 82.2011C203.185 81.7908 203.526 81.2626 203.71 80.6731C203.777 80.5069 203.655 80.4072 203.422 80.4183Z" fill="white"/>
<path d="M199.567 78.7344C202.381 78.5239 202.536 77.7928 202.536 77.7928L201.052 74.8237C201.052 74.8237 201.395 77.7928 199.567 78.7344Z" fill="#E98A6F"/>
<path d="M169.943 175.095C169.943 175.095 170.087 213.16 175.106 234.22C175.859 237.356 187.292 236.436 187.292 236.436C187.292 236.436 194.781 200.442 195.734 186.904C196.266 179.249 197.795 165.855 197.795 165.855C197.795 165.855 170.985 163.152 169.943 175.095Z" fill="#1E2732"/>
<path d="M206.513 139.389C206.513 139.389 212.053 162.986 211.333 165.556C209.183 172.979 189.176 183.404 170.952 168.204C170.952 168.204 175.117 150.767 183.781 135.999C183.781 135.999 186.96 139.289 206.513 139.389Z" fill="#1E2732"/>
<path d="M181.764 139.323C181.764 139.323 202.171 145.615 206.513 139.389C208.497 136.553 212.861 122.362 214.268 113.299C211.011 105.545 203.711 91.4528 203.711 91.4528C202.85 91.2728 201.975 91.169 201.096 91.1426C203.722 101.002 200.143 103.329 200.143 103.329C189.287 103.639 186.617 94.9979 186.617 94.9979L183.98 96.6486C183.98 96.6486 192.078 113.455 176.458 121.143C176.424 121.143 176.048 139.179 181.764 139.323Z" fill="#6651A1"/>
<path d="M188.201 80.5292C188.201 80.7133 188.146 80.8932 188.044 81.0462C187.942 81.1993 187.796 81.3185 187.626 81.389C187.456 81.4594 187.269 81.4778 187.089 81.4419C186.908 81.406 186.742 81.3174 186.612 81.1873C186.482 81.0571 186.393 80.8913 186.357 80.7108C186.322 80.5303 186.34 80.3431 186.41 80.1731C186.481 80.0031 186.6 79.8577 186.753 79.7555C186.906 79.6532 187.086 79.5986 187.27 79.5986C187.517 79.5986 187.754 79.6967 187.928 79.8712C188.103 80.0457 188.201 80.2824 188.201 80.5292V80.5292Z" fill="white"/>
<path d="M184.257 103.672C185.78 105.292 186.597 107.452 186.529 109.675C186.46 111.898 185.512 114.002 183.891 115.526C180.568 118.705 169.91 124.754 169.811 120.123C169.622 111.017 169.977 106.076 173.345 102.896C176.712 99.717 181.077 100.293 184.257 103.672Z" fill="#F6A382"/>
<path d="M184.633 111.372L177.333 107.14L169.977 111.759C169.977 111.759 165.656 139.223 167.251 145.515C168.935 152.218 172.015 147.277 173.477 145.449C173.444 145.449 185.464 116.711 184.633 111.372Z" fill="#F6A382"/>
<path d="M168.326 148.196C168.326 148.196 181.509 157.613 193.208 162.731C193.208 162.731 197.075 161.103 195.136 159.319C191.812 156.284 177.51 142.546 174.198 139.5C168.326 137.495 168.326 148.196 168.326 148.196Z" fill="#F6A382"/>
<path d="M199.877 167.982C195.114 165.922 194.637 165.168 193.729 164.083C189.852 159.452 196.875 159.02 198.681 159.264C199.711 159.419 199.977 161.823 203.367 164.493C203.367 164.493 208.552 166.952 209.748 166.642C209.748 166.642 211.033 166.719 211.111 167.628C211.111 167.628 207.81 170.021 199.877 167.982Z" fill="#F6A382"/>
<path d="M198.448 159.208C198.448 159.208 196.41 160.97 199.468 162.033L203.345 161.568C203.345 161.568 204.453 161.568 204.608 160.649C204.608 160.649 204.553 160.006 203.434 159.951L198.448 159.208Z" fill="#F6A382"/>
<path d="M281.049 193.385H280.872L280.606 193.33H280.418H280.229L280.096 208.33L255.259 225.092L255.414 207.189L275.997 193.308L275.078 193.43H274.878L274.535 193.496H274.291L273.948 193.574H273.737L273.195 193.707H273.051L272.386 193.895H272.275L271.356 194.183L270.436 194.515L269.417 194.936L268.409 195.424C268.076 195.59 267.755 195.767 267.434 195.956L266.492 196.554C263.745 198.404 262.304 200.487 262.282 202.259L262.448 184.356C262.448 182.584 263.9 180.501 266.647 178.651L267.589 178.053L268.564 177.51L269.572 177.022L270.58 176.602L271.477 176.269L272.386 175.981H272.463L273.117 175.804H273.272L273.804 175.671H273.904H274.025L274.358 175.593H274.602L274.934 175.527H275.111L276.02 175.394H276.152L276.939 175.327H277.094C277.338 175.327 277.582 175.327 277.825 175.327C278.058 175.327 278.28 175.327 278.501 175.327H278.667H279.321H279.387L280.041 175.405H280.362H280.617H280.828H281.071H281.237L281.803 175.56H281.924C282.113 175.627 282.29 175.682 282.467 175.76L282.855 175.948H282.955L283.088 176.025L283.187 176.092L283.32 176.181L283.52 176.313L283.619 176.402C283.695 176.459 283.765 176.522 283.83 176.59L283.985 176.746L284.051 176.823L284.184 177L284.24 177.078C284.238 177.107 284.238 177.137 284.24 177.167C284.24 177.222 284.317 177.277 284.351 177.344L284.417 177.466L284.517 177.632V177.687C284.517 177.787 284.616 177.887 284.661 177.997L284.838 178.407L284.949 178.673L285.004 178.795L285.17 179.15L285.27 179.327C285.272 179.356 285.272 179.386 285.27 179.415L285.436 179.681L285.558 179.847L285.735 180.08L285.813 180.18C285.896 180.288 285.984 180.392 286.079 180.49V180.49L286.389 180.8L286.478 180.889L286.721 181.099L286.843 181.199L287.109 181.41L287.22 181.498L287.63 181.764H287.685H287.752H287.807H287.885H287.951C287.98 181.758 288.01 181.758 288.04 181.764H288.15H288.217L288.339 181.819H288.405L288.605 181.908C289.081 182.119 289.635 182.351 290.145 182.517L315.016 165.745L314.861 183.647L289.989 200.42C289.48 200.254 288.882 200.021 288.45 199.811L288.25 199.722L288.095 199.645H288.029L287.918 199.589H287.851H287.763H287.707H287.63H287.552H287.497L287.087 199.323L286.965 199.224L286.71 199.035L286.644 198.98H286.588L286.356 198.769L286.256 198.681L285.946 198.371L285.691 198.072C285.662 198.037 285.636 198 285.613 197.961L285.436 197.728V197.673L285.359 197.562L285.192 197.296L285.126 197.174C285.104 197.128 285.078 197.083 285.049 197.041L284.882 196.687V196.587C284.882 196.476 284.783 196.377 284.738 196.266C284.694 196.155 284.639 196.022 284.583 195.9V195.834L284.45 195.546L284.384 195.424C284.359 195.366 284.329 195.311 284.295 195.258L284.229 195.136C284.188 195.079 284.151 195.02 284.118 194.958C284.086 194.92 284.056 194.879 284.029 194.837L283.974 194.759L283.841 194.593L283.763 194.504L283.575 194.305L283.32 194.083L283.209 194.006C283.152 193.952 283.088 193.903 283.021 193.862L282.888 193.773L282.656 193.64L282.545 193.574C282.42 193.502 282.29 193.439 282.157 193.385C281.991 193.308 281.814 193.252 281.625 193.186H281.503L281.049 193.385Z" fill="#0092C5"/>
<path d="M315.459 166.576L238.486 134.182L178.441 174.696L210.336 188.112C209.664 188.646 208.945 189.117 208.186 189.519C206.923 190.04 205.603 190.412 204.253 190.627C201.561 191.125 198.271 191.048 196.366 192.333C193.374 194.349 195.723 198.005 201.606 200.631L202.126 200.852C208.386 203.489 215.952 203.943 219.021 201.86C221.525 200.176 219.597 197.507 221.093 195.546C221.852 194.833 222.684 194.202 223.574 193.662L255.425 207.056L280.274 190.294L279.953 190.15C278.872 189.68 277.762 189.28 276.629 188.954C272.918 188.134 267.91 189.12 264.709 187.78C260.787 186.029 261.584 182.063 266.415 178.806C271.245 175.549 278.446 174.186 282.39 175.848C284.827 176.956 284.738 178.651 285.713 180.058C286.293 180.91 287.048 181.628 287.929 182.163C288.051 182.229 288.494 182.462 289.037 182.706C289.58 182.949 290.067 183.149 290.577 183.315L315.459 166.576Z" fill="#80BAE5"/>
<path d="M245.033 239.46V239.593C245.038 239.638 245.038 239.682 245.033 239.726C245.039 239.767 245.039 239.808 245.033 239.848C245.033 239.848 245.033 239.937 245.033 239.981V240.114C245.033 240.114 245.033 240.181 245.033 240.214C245.033 240.247 245.033 240.302 245.033 240.347C245.033 240.391 245.033 240.413 245.033 240.446C245.027 240.464 245.027 240.484 245.033 240.502C244.988 240.623 244.936 240.741 244.878 240.856V240.856L244.679 241.189C244.683 241.207 244.683 241.226 244.679 241.244C244.607 241.355 244.525 241.459 244.435 241.554L244.357 241.632C244.334 241.667 244.304 241.697 244.269 241.72L244.169 241.82L244.069 241.909L243.803 242.031L243.626 242.164L243.537 242.23L243.327 242.363L243.238 242.418C243.182 242.462 243.118 242.496 243.05 242.518L242.95 242.585L242.64 242.729C242.224 242.905 241.795 243.046 241.355 243.15C241 243.227 240.624 243.305 240.247 243.36L239.139 243.482C238.619 243.482 238.031 243.548 237.533 243.559C236.348 243.559 235.129 243.559 233.944 243.559L232.37 243.637L232.537 261.839C233.046 261.839 233.578 261.772 234.11 261.761C235.295 261.761 236.514 261.761 237.699 261.761C238.242 261.761 238.807 261.761 239.294 261.673C239.782 261.584 240.048 261.606 240.402 261.551C240.775 261.5 241.145 261.43 241.51 261.34C241.948 261.237 242.378 261.1 242.795 260.931L243.116 260.775H243.194L243.405 260.665H243.46L243.67 260.532L243.77 260.465L243.936 260.332L244.025 260.244L244.136 260.155C244.159 260.12 244.189 260.09 244.224 260.066V260.011C244.316 259.917 244.401 259.817 244.479 259.712V259.712C244.554 259.606 244.62 259.495 244.679 259.38V259.38C244.744 259.264 244.796 259.141 244.834 259.014V259.014V258.903V258.781C244.834 258.781 244.834 258.704 244.834 258.671C244.834 258.637 244.834 258.615 244.834 258.582C244.834 258.582 244.834 258.482 244.834 258.438C244.834 258.394 244.834 258.36 244.834 258.327V258.172C244.834 258.172 244.834 258.117 244.834 258.094L245.033 239.46Z" fill="#7C284B"/>
<path d="M230.365 243.936C229.236 244.283 228.127 244.69 227.042 245.155L226.72 245.299L226.876 263.501L227.197 263.346C228.28 262.879 229.39 262.476 230.52 262.138L231.407 261.983C231.761 261.928 232.127 261.894 232.514 261.861L232.348 243.659C231.979 243.659 231.61 243.703 231.24 243.792C230.946 243.823 230.654 243.871 230.365 243.936V243.936Z" fill="#7C284B"/>
<path d="M252.123 280.539L251.968 262.337L219.564 275.975L219.697 291.119C215.93 291.573 212.551 291.219 210.723 290.011C210.249 289.684 209.868 289.24 209.617 288.721C209.367 288.203 209.255 287.628 209.294 287.053C209.294 286.754 209.294 286.444 209.294 286.145C209.372 285.243 209.142 284.34 208.64 283.586C207.864 282.86 207.013 282.218 206.103 281.669L173.743 295.285L173.898 313.487L206.269 299.86C207.175 300.415 208.022 301.06 208.795 301.788C209.263 302.454 209.496 303.257 209.46 304.07C209.46 304.369 209.46 304.668 209.46 304.967C209.381 305.587 209.474 306.216 209.728 306.786C209.982 307.357 210.387 307.846 210.9 308.202C214.024 310.318 221.713 309.853 228.072 307.172L228.593 306.95C232.825 305.067 235.24 302.641 235.24 300.669C235.24 296.348 235.162 292.039 235.118 287.718L252.123 280.539Z" fill="#A0426E"/>
<path d="M242.607 242.685L242.762 260.886C239.383 262.305 234.287 261.307 230.52 262.127C229.391 262.473 228.282 262.879 227.197 263.346L226.876 263.501L226.72 245.354L227.042 245.21C228.126 244.742 229.235 244.335 230.365 243.992C234.132 243.139 239.217 244.114 242.607 242.685Z" fill="#7C284B"/>
<path d="M173.721 295.263L112.69 254.084L112.845 272.275L173.887 313.464L173.721 295.263Z" fill="#7C284B"/>
<path d="M233.755 280.296C231.816 278.988 228.471 279.066 225.745 278.567C224.374 278.355 223.032 277.983 221.746 277.46C220.964 277.055 220.222 276.576 219.53 276.031L251.935 262.393L226.72 245.354L227.042 245.21C228.126 244.742 229.235 244.335 230.365 243.992C234.132 243.161 239.228 244.169 242.551 242.74C246.407 241.023 245.598 236.99 240.69 233.689C235.783 230.387 228.504 228.991 224.327 230.731C221.968 231.783 222.112 233.523 221.104 234.952C220.524 235.813 219.769 236.542 218.888 237.09C218.777 237.167 218.323 237.389 217.78 237.655C217.237 237.921 216.739 238.098 216.218 238.275L190.937 221.214L112.701 254.139L173.743 295.318L206.137 281.647C207.047 282.196 207.897 282.838 208.674 283.564C210.18 285.558 208.23 288.272 210.767 289.989C213.891 292.094 221.58 291.629 227.939 288.959L228.471 288.726C234.398 286.068 236.791 282.345 233.755 280.296Z" fill="#CB4E7E"/>
<path d="M395.844 350.046C395.844 360.858 415.531 369.61 439.815 369.61C464.099 369.61 483.785 360.858 483.785 350.046C483.785 339.233 464.099 330.492 439.815 330.492C415.531 330.492 395.844 339.244 395.844 350.046Z" fill="#9DAAD3"/>
<path d="M425.002 345.659C422.611 347.794 419.816 349.429 416.782 350.467C415.583 350.801 414.317 350.813 413.113 350.499C411.908 350.186 410.808 349.559 409.925 348.683C409.789 348.546 409.685 348.381 409.621 348.2C409.557 348.018 409.533 347.825 409.552 347.633C409.571 347.442 409.632 347.257 409.731 347.092C409.83 346.926 409.964 346.785 410.124 346.678C419.219 339.754 421.945 337.815 421.945 337.815H430.298C430.553 339.374 430.617 340.959 430.486 342.534C429.365 344.009 427.726 345.003 425.9 345.315C425.722 345.315 425.401 345.082 425.246 345.149L425.002 345.659Z" fill="#17181C"/>
<path d="M410.08 346.711C410.114 346.907 410.173 347.097 410.257 347.276C410.966 348.794 412.927 349.414 414.489 349.392C416.333 349.208 418.11 348.605 419.685 347.631C421.227 346.82 422.672 345.839 423.995 344.706C424.998 344.013 426.095 343.465 427.252 343.078C428.445 342.476 429.561 341.732 430.575 340.862C430.575 341.759 430.52 342.513 430.52 342.513C429.398 343.987 427.759 344.981 425.933 345.293C425.756 345.293 425.435 345.061 425.28 345.127L425.036 345.659C422.645 347.795 419.85 349.429 416.816 350.467C415.617 350.802 414.351 350.813 413.146 350.5C411.942 350.186 410.842 349.56 409.958 348.683C409.823 348.553 409.717 348.395 409.649 348.22C409.581 348.044 409.551 347.857 409.563 347.669C409.575 347.481 409.627 347.299 409.716 347.133C409.805 346.968 409.93 346.824 410.08 346.711Z" fill="black"/>
<path d="M431.218 270.037C421.934 280.296 418.245 269.45 418.245 269.45L417.137 206.391C417.015 207.333 416.705 200.032 428.437 201.617C440.169 203.201 443.094 207.754 443.094 207.754C443.094 207.754 436.657 251.303 431.251 270.037" fill="#E69376"/>
<path d="M418.189 268.619C418.189 268.619 422.909 335.023 423.286 337.305C423.286 337.305 429.024 338.568 429.046 337.25C429.113 334.07 435.693 295.207 435.693 290.211C435.904 277.559 432.647 275.166 429.39 266.647C429.434 266.725 418.167 258.394 418.189 268.619Z" fill="#E69376"/>
<path d="M434.02 272.43C439.415 253.686 443.06 207.754 443.06 207.754C443.06 207.754 440.091 203.19 428.403 201.617C416.716 200.044 416.981 207.333 417.103 206.392C417.103 206.392 413.547 240.591 416.793 271.655C416.793 271.655 426.819 276.983 434.02 272.43Z" fill="#104473"/>
<path d="M451.746 172.569C453.408 178.474 460.243 200.985 460.243 200.985C435.76 230.288 417.314 204.652 417.037 201.982C416.738 198.781 420.361 186.561 420.959 173.4C420.992 173.4 427.706 163.119 451.746 172.569Z" fill="#F6A382"/>
<path d="M417.214 209.316C416.106 201.417 418.455 193.463 419.696 185.486H455.568C457.861 193.13 460.243 200.996 460.243 200.996C460.243 200.996 461.783 219.087 446.417 221.259C446.417 221.248 419.651 225.889 417.214 209.316Z" fill="#104473"/>
<path d="M458.016 271.422C450.35 282.943 445.099 272.751 445.099 272.751L432.658 211.332C432.658 212.274 433.034 203.334 444.844 203.156C456.654 202.979 460.243 207.056 460.243 207.056C460.243 207.056 460.553 252.09 458.027 271.422" fill="#F6A382"/>
<path d="M444.922 271.943C444.922 271.943 457.241 341.914 457.961 344.163C457.961 344.163 463.822 344.562 463.644 343.255C463.245 340.097 464.298 295.983 463.644 291.02C461.983 278.479 460.243 276.319 455.756 268.376C455.756 268.409 443.382 261.839 444.922 271.943Z" fill="#F6A382"/>
<path d="M457.407 342.845L453.939 353.414C453.939 353.414 454.66 362.875 462.237 357.003L464.453 354.787C464.784 354.508 465.035 354.144 465.179 353.736C465.323 353.327 465.355 352.887 465.273 352.461L464.597 348.417L463.799 342.812C463.799 342.812 459.08 339.621 457.407 342.845Z" fill="#17181C"/>
<path d="M462.237 355.663L464.453 353.447C464.834 353.138 465.106 352.714 465.228 352.239V352.472C465.311 352.898 465.279 353.338 465.134 353.746C464.99 354.155 464.74 354.519 464.408 354.798L462.193 357.014C454.615 362.886 453.895 353.425 453.895 353.425L454.028 353.015C454.504 355.23 456.177 360.349 462.237 355.663Z" fill="black"/>
<path d="M443.581 274.446C439.261 261.772 431.107 209.316 431.107 209.316C431.107 210.258 433.544 196.786 445.376 196.609C457.208 196.432 460.243 201.04 460.243 201.04C460.243 201.04 463.943 252.389 461.351 271.71C461.384 271.654 453.064 281.259 443.581 274.446Z" fill="#065098"/>
<path d="M422.809 132.221C422.809 132.221 402.768 155.785 392.809 163.595C392.809 163.595 386.162 161.125 386.317 156.572C386.317 156.572 400.985 134.869 410.202 122.029C410.202 122.029 422.654 118.44 422.809 132.221Z" fill="#E69376"/>
<path d="M389.219 154.6C389.219 154.6 367.339 167.34 358.277 171.594C358.277 171.594 356.649 174.142 359.274 174.386C363.706 174.785 394.149 164.415 394.891 162.067C398.37 150.888 389.219 154.6 389.219 154.6Z" fill="#E69376"/>
<path d="M409.216 129.596C409.967 131.614 411.485 133.255 413.439 134.16C415.394 135.064 417.627 135.16 419.652 134.426C420.649 134.056 421.563 133.493 422.341 132.769C423.12 132.044 423.747 131.173 424.187 130.204C424.626 129.236 424.87 128.191 424.904 127.128C424.937 126.065 424.76 125.006 424.382 124.012C423.632 121.993 422.114 120.353 420.159 119.448C418.204 118.543 415.971 118.448 413.946 119.182C412.949 119.551 412.035 120.114 411.257 120.839C410.478 121.564 409.851 122.435 409.412 123.403C408.972 124.371 408.728 125.417 408.694 126.48C408.661 127.543 408.838 128.602 409.216 129.596V129.596Z" fill="#E69376"/>
<path d="M419.22 118.728C416.993 118.07 414.614 118.155 412.44 118.968C410.265 119.781 408.415 121.279 407.166 123.237L389.685 148.595C392.343 153.899 396.571 158.254 401.793 161.069C401.793 161.069 433.09 132.254 419.22 118.728Z" fill="#862952"/>
<path d="M439.46 110.197C439.46 110.197 440.911 107.428 444.091 102.099C444.091 102.099 450.86 95.1417 447.071 86.4008C447.071 86.4008 444.977 79.1001 432.204 80.1526C432.204 80.1747 431.029 100.293 439.46 110.197Z" fill="#F79F7D"/>
<path d="M439.969 98.8311C439.969 98.8311 437.82 118.883 442.407 120.401L426.055 119.426C426.055 119.426 428.625 113.366 425.634 108.901L439.969 98.8311Z" fill="#F6A382"/>
<path d="M426.952 115.925C427.218 111.339 426.642 110.386 425.634 108.901L439.969 98.8311C439.555 102.935 439.404 107.061 439.515 111.184C435.361 115.105 431.937 116.036 426.952 115.925Z" fill="#E0856E"/>
<path d="M414.522 118.694C410.877 121.353 410.456 127.712 411.764 131.689C413.248 136.254 413.846 142.081 415.342 148.684C417.358 157.624 418.732 164.515 420.992 173.4C422.864 180.745 452.377 174.818 452.377 174.818L462.957 138.669C462.957 138.669 464.785 129.23 456.233 126.084C451.199 123.372 445.987 121.003 440.634 118.994C434.807 117.022 432.702 116.778 426.72 117.199C426.72 117.199 418.71 117.498 414.522 118.694Z" fill="#F6A382"/>
<path d="M419.785 81.7036C418.932 85.5478 417.979 87.553 419.042 91.076C419.995 94.2444 419.773 97.579 421.158 100.648C423.13 105.079 425.7 104.448 427.661 100.426C429.622 96.4047 431.76 90.7325 427.229 87.6749C424.316 85.714 423.263 82.3462 419.785 81.7036Z" fill="#260F00"/>
<path d="M422.31 111.748L421.623 109.533L419.95 101.102C419.751 99.946 419.796 98.7608 420.083 97.6234C420.434 96.4649 420.536 95.2456 420.383 94.0451C419.341 88.0295 422.598 84.9053 422.598 84.9053C426.343 79.5766 434.563 79.9976 434.563 79.9976C444.7 81.0057 445.065 90.8877 445.065 90.8877C446.384 97.5348 440.911 102.708 440.9 102.719C440.457 103.129 440.567 105.29 440.412 105.899C439.737 108.491 437.155 109.965 434.873 110.962C432.286 112.225 429.495 113.021 426.631 113.31C425.601 113.355 422.698 113.056 422.31 111.748Z" fill="#F79F7D"/>
<path d="M420.106 100.947C421.446 102.154 423.252 101.6 424.681 102.476C425.024 102.723 425.426 102.875 425.846 102.916C426.267 102.957 426.691 102.885 427.074 102.708C427.832 102.496 428.637 102.523 429.379 102.786C430.22 103.03 431.76 103.772 432.58 104.093C433.192 104.38 433.882 104.455 434.54 104.304C435.199 104.153 435.788 103.787 436.214 103.262C437.079 102.436 437.726 101.408 438.097 100.271C438.984 97.5236 441.753 97.3685 443.636 98.8974C442.892 100.294 441.956 101.581 440.856 102.719C440.413 103.129 440.523 107.084 440.368 107.694C439.693 110.275 437.111 111.759 434.829 112.745C432.325 113.853 428.525 113.997 425.789 114.108C425.049 114.051 424.335 113.803 423.718 113.39C423.101 112.977 422.601 112.411 422.266 111.748L421.579 109.533L419.951 101.102C419.951 100.958 419.951 100.792 419.884 100.637C419.95 100.746 420.024 100.849 420.106 100.947Z" fill="#260F00"/>
<path d="M419.951 85.271C422.244 85.271 422.166 87.1986 423.972 88.2622C427.75 90.5665 433.599 87.1543 436.635 90.921C436.932 91.2852 437.192 91.6787 437.41 92.0953C438.197 93.8489 438.687 95.7207 438.862 97.6345C438.939 98.1774 438.54 99.5844 439.039 100.005C439.316 100.249 439.814 100.172 440.346 100.005C440.446 100.847 439.77 101.49 439.482 102.221C439.194 102.952 438.729 103.65 439.138 104.437C440.246 106.442 439.393 106.11 439.482 110.153C440.314 109.2 441.247 108.338 442.263 107.583C443.773 106.332 445.094 104.87 446.184 103.24C447.164 101.587 447.967 99.8339 448.577 98.0112C449.84 95.1127 450.135 91.8845 449.419 88.805C449.419 88.805 448.732 81.6373 442.772 80.8618C442.772 80.8618 443.537 76.2531 432.58 75.0345C432.58 75.0345 423.928 75.1675 423.451 72.1763C422.936 72.6517 422.546 73.2479 422.318 73.9112C422.09 74.5745 422.03 75.2841 422.144 75.9762C422.144 75.9762 418.577 77.084 416.982 72.9961C416.915 73.0625 413.946 83.7865 419.951 85.271Z" fill="#260F00"/>
<path d="M439.305 104.403C439.574 104.764 439.97 105.009 440.413 105.09C441.775 105.345 443.149 104.071 443.47 102.254C443.792 100.437 442.95 98.7645 441.587 98.5208C441.258 98.4707 440.921 98.4955 440.603 98.5933C440.285 98.6911 439.992 98.8595 439.748 99.0858C439.011 99.9841 438.639 101.127 438.707 102.287C438.673 103.039 438.883 103.781 439.305 104.403Z" fill="#F79F7D"/>
<path d="M440.778 100.127C440.989 99.1745 442.828 100.338 442.462 100.836C442.223 101.115 441.929 101.341 441.598 101.501C441.411 101.601 441.249 101.742 441.122 101.912C440.996 102.083 440.909 102.279 440.867 102.487C440.867 102.487 440.867 102.708 440.867 102.753C441.1 102.963 442.03 102.121 442.241 101.944C442.432 101.746 442.57 101.504 442.644 101.239C442.717 100.974 442.724 100.694 442.662 100.426C442.629 100.188 442.511 99.9706 442.33 99.8136C442.148 99.6565 441.916 99.5711 441.676 99.5733C441.244 99.5733 440.789 99.5733 440.745 100.072C440.745 100.072 440.745 100.183 440.745 100.072L440.778 100.127Z" fill="#E98A6F"/>
<path d="M441.277 101.202C441.1 100.98 440.889 101.124 440.668 101.202C440.47 101.319 440.32 101.504 440.247 101.722C440.037 102.249 440.037 102.835 440.247 103.362C440.336 103.553 440.474 103.717 440.647 103.838C440.82 103.959 441.022 104.031 441.233 104.049C441.82 104.104 442.052 103.606 442.141 103.107C442.141 102.974 442.207 102.664 442.086 102.564C441.964 102.465 441.831 102.664 441.731 102.753C441.577 102.854 441.393 102.897 441.21 102.874C441.044 102.861 440.883 102.81 440.739 102.726C440.595 102.641 440.472 102.526 440.38 102.387C440.348 102.336 440.325 102.28 440.313 102.221C440.313 102.542 440.313 102.62 440.313 102.442C440.351 102.366 440.399 102.295 440.457 102.232C440.612 102.021 440.867 101.9 441.044 101.7C441.221 101.501 441.299 101.279 441.21 101.157L441.277 101.202Z" fill="#E98A6F"/>
<path d="M425.224 100.448L427.983 101.556C427.983 101.556 424.26 101.789 424.116 100.714C424.116 100.714 424.681 98.5984 425.291 96.5932C425.291 96.5488 424.814 100.293 425.224 100.448Z" fill="#E98A6F"/>
<path d="M430.043 96.5488C430.043 97.1359 430.364 97.6012 430.763 97.6012C431.162 97.6012 431.483 97.1359 431.483 96.5488C431.483 95.9616 431.162 95.4409 430.763 95.4409C430.364 95.4409 430.043 95.9616 430.043 96.5488Z" fill="#260F00"/>
<path d="M422.078 95.6623C422.078 96.2495 422.399 96.7702 422.787 96.7702C423.174 96.7702 423.507 96.3049 423.507 95.6623C423.507 95.0198 423.185 94.6099 422.787 94.6099C422.388 94.6099 422.078 95.0752 422.078 95.6623Z" fill="#260F00"/>
<path d="M429.301 94.4991C429.046 94.4991 428.98 94.2 428.98 94.2C428.923 93.997 428.923 93.7826 428.98 93.5796C429.043 93.443 429.153 93.3332 429.29 93.2694C430.324 93.2252 431.359 93.3601 432.347 93.6683C432.946 93.8566 433.932 94.2997 433.998 94.8647C433.998 95.0309 433.998 95.319 433.843 95.3633C432.359 94.9346 430.839 94.6453 429.301 94.4991Z" fill="#260F00"/>
<path d="M420.228 93.5794C421.425 93.603 422.618 93.7253 423.795 93.945C424.028 94.078 424.183 93.7567 424.183 93.7567C424.29 93.576 424.344 93.3686 424.338 93.1585C424.319 93.0075 424.244 92.8691 424.127 92.7707C423.287 92.4524 422.389 92.3128 421.491 92.3608C421.042 92.3571 420.594 92.4167 420.161 92.5381C420.112 92.8861 420.135 93.2405 420.228 93.5794V93.5794Z" fill="#260F00"/>
<path d="M423.684 103.827C423.451 103.827 423.33 103.927 423.418 104.093C423.651 104.65 424.027 105.135 424.509 105.499C424.99 105.862 425.559 106.092 426.159 106.164C426.758 106.236 427.365 106.148 427.919 105.909C428.473 105.67 428.954 105.288 429.312 104.802C429.456 104.647 429.312 104.492 429.046 104.459C429.046 104.459 426.044 104.082 423.684 103.827Z" fill="white"/>
<path d="M457.773 193.828C459.588 197.121 460.54 200.82 460.54 204.58C460.54 208.34 459.588 212.039 457.773 215.332C451.491 226.698 432.292 222.555 432.292 207.832C432.192 193.286 445.431 187.746 457.773 193.828Z" fill="#065098"/>
<path d="M426.72 117.199C426.72 117.199 418.71 117.498 414.533 118.694C410.889 121.353 410.468 127.712 411.775 131.689C413.259 136.254 413.858 142.081 415.353 148.684C417.37 157.624 414.822 164.194 417.082 173.056C418.943 180.401 458.072 173.056 458.072 173.056L463.024 138.713C463.024 138.713 464.852 129.274 456.299 126.128C451.373 123.435 446.26 121.099 441 119.137C441 119.137 442.03 126.084 430.686 124.167C430.73 124.167 423.806 122.494 426.72 117.199Z" fill="#862952"/>
<path d="M458.005 173.046C459.656 178.95 460.941 198.825 460.941 198.825C456.443 217.448 415.131 204.054 414.888 201.384C414.6 198.183 415.863 182.961 416.505 169.789C416.538 169.8 433.921 163.585 458.005 173.046Z" fill="#862952"/>
<path d="M445.819 139.544C448.522 145.083 458.526 172.702 461.739 177.078C462.592 178.186 470.845 183.548 472.695 176.314C468.153 147.587 461.273 131.246 461.273 131.246C461.273 131.246 453.241 124.599 446.871 130.737C446.827 130.693 443.924 135.744 445.819 139.544Z" fill="#F6A382"/>
<path d="M444.689 134.648C444.372 136.532 444.62 138.467 445.403 140.21C446.185 141.953 447.467 143.425 449.086 144.439C450.705 145.453 452.589 145.965 454.499 145.908C456.408 145.852 458.259 145.231 459.815 144.124C461.372 143.016 462.565 141.472 463.245 139.686C463.924 137.901 464.058 135.953 463.631 134.091C463.203 132.229 462.233 130.536 460.844 129.225C459.454 127.914 457.707 127.044 455.823 126.727C454.572 126.515 453.291 126.553 452.054 126.837C450.818 127.12 449.649 127.645 448.615 128.381C447.581 129.116 446.702 130.048 446.028 131.124C445.355 132.199 444.9 133.396 444.689 134.648V134.648Z" fill="#F6A382"/>
<path d="M454.216 125.031C454.216 125.031 462.525 128.144 464.486 134.88L469.615 153.226C469.615 153.226 462.891 162.997 452.887 162.676L442.994 140.696C442.994 140.696 436.336 128.366 454.216 125.031Z" fill="#862952"/>
<path d="M347.941 177.499L350.5 177.432C350.5 177.432 345.836 178.629 344.329 177.111C344.329 177.111 343.942 176.878 344.54 176.336C346.534 176.281 348.521 176.058 350.478 175.671C348.19 176.219 345.838 176.453 343.487 176.369C343.345 176.305 343.226 176.2 343.145 176.067C343.065 175.933 343.026 175.779 343.036 175.623C343.046 175.468 343.103 175.319 343.199 175.197C343.296 175.075 343.427 174.985 343.576 174.94C342.657 174.585 343.443 173.976 343.443 173.976C344.334 173.522 345.265 173.151 346.224 172.868C348.389 172.152 350.515 171.324 352.594 170.386C352.594 170.386 349.902 168.625 350.91 167.196L355.064 169.411L358.82 171.827L359.319 174.375L355.408 177.089C353.5 177.873 351.501 178.412 349.459 178.695C349.459 178.695 343.244 178.485 347.941 177.499Z" fill="#E69376"/>
<path d="M443.581 274.447L454.294 341.405C454.294 341.405 457.85 344.839 466.115 341.405L467.477 308.69C467.477 308.69 469.903 287.076 461.351 271.655C461.384 271.655 444.523 258.05 443.581 274.447Z" fill="#065098"/>
<path d="M434.021 272.43C434.021 272.43 438.596 279.077 434.497 303.882L430.298 337.793C428.725 338.631 426.973 339.081 425.191 339.104C423.408 339.127 421.645 338.723 420.051 337.926L416.727 270.347C416.727 270.347 419.696 258.892 434.021 272.43Z" fill="#104473"/>
<path d="M355.618 190.682C355.599 190.241 355.469 189.813 355.238 189.437C355.007 189.06 354.684 188.749 354.3 188.533C354.157 188.439 354.009 188.354 353.857 188.278L353.713 188.201L353.369 188.046H353.281H353.203L352.627 187.857L352.007 187.702H351.929H351.84L351.076 187.547H350.998L350.179 187.436H350.101L349.226 187.325L348.517 187.237C348.24 187.237 347.963 187.237 347.697 187.137H347.542L346.744 187.015L346.346 186.949L345.526 186.783H345.371L344.772 186.639L344.185 186.472L343.997 186.417L343.598 186.295L343.399 186.229L343 186.085L342.845 186.018L342.357 185.819C341.578 185.409 340.837 184.931 340.142 184.39L340.297 202.592C340.988 203.134 341.73 203.609 342.512 204.01L343.011 204.22H343.122L343.532 204.364C343.592 204.393 343.655 204.415 343.72 204.431L344.13 204.563H344.241H344.307L344.905 204.719L345.515 204.863H345.659L346.478 205.04H346.822H346.833L347.62 205.151H347.786L348.594 205.25L349.126 205.306H349.337L350.223 205.405H350.289L351.109 205.527H351.264L352.029 205.671H352.184L352.815 205.838C353.014 205.894 353.21 205.961 353.402 206.037L353.558 206.103L353.901 206.259L354.056 206.325C354.21 206.403 354.358 206.492 354.499 206.591C354.882 206.81 355.203 207.121 355.433 207.497C355.664 207.872 355.796 208.3 355.818 208.74L355.618 190.682Z" fill="#394572"/>
<path d="M329.251 230.764H329.44H329.695H329.905H330.082L330.215 246.008L355.474 263.047L355.308 244.856L334.392 230.742C334.702 230.742 335.012 230.82 335.311 230.875H335.533C335.644 230.875 335.766 230.875 335.876 230.942H336.131L336.452 231.008L336.685 231.063L337.228 231.196H337.383L338.048 231.385H338.181C338.491 231.484 338.801 231.573 339.1 231.684H339.156L340.064 232.016H340.142L341.172 232.448C341.515 232.603 341.859 232.769 342.191 232.947L343.188 233.501C343.52 233.7 343.842 233.899 344.152 234.11C346.944 235.993 348.406 238.098 348.428 239.904L348.262 221.702C348.262 219.907 346.789 217.791 343.997 215.908C343.687 215.698 343.365 215.498 343.033 215.299C342.712 215.11 342.379 214.933 342.047 214.756L341.039 214.268H340.984L339.953 213.825L339.023 213.482L337.97 213.227H337.904H337.848L337.173 213.039H337.04L336.475 212.906H336.375H336.264L335.91 212.828H335.677L335.322 212.762H335.156L334.226 212.629H334.093L333.295 212.551H333.14C332.641 212.551 332.165 212.551 331.7 212.551H331.534H330.858L330.171 212.629H330.049H329.783H329.584L329.307 212.695C329.259 212.69 329.211 212.69 329.163 212.695C328.968 212.739 328.775 212.794 328.587 212.861H328.465C328.277 212.928 328.088 212.994 327.922 213.072C327.785 213.126 327.652 213.189 327.523 213.26L327.412 213.327L327.279 213.393L327.18 213.46L327.047 213.548L326.847 213.692L326.737 213.781L326.526 213.98C326.469 214.026 326.417 214.078 326.371 214.136V214.136L326.305 214.213C326.257 214.266 326.213 214.321 326.172 214.379L326.105 214.468L326.05 214.568L325.939 214.734C325.917 214.78 325.891 214.825 325.861 214.867C325.836 214.924 325.807 214.98 325.773 215.033V215.088C325.773 215.088 325.773 215.088 325.773 215.155C325.718 215.247 325.67 215.344 325.629 215.443V215.509L325.463 215.897L325.33 216.196C325.33 216.196 325.33 216.274 325.33 216.318C325.33 216.362 325.219 216.551 325.152 216.672C325.124 216.737 325.09 216.8 325.053 216.861C325.055 216.89 325.055 216.92 325.053 216.949L324.887 217.215L324.776 217.381L324.587 217.614C324.587 217.614 324.532 217.681 324.51 217.725L324.244 218.035C324.144 218.135 324.045 218.246 323.934 218.345L323.834 218.434C323.758 218.513 323.677 218.588 323.59 218.655L323.469 218.766L323.203 218.966L323.081 219.054L322.671 219.331H322.615H322.549H322.494H322.427H322.361H322.283C322.254 219.337 322.224 219.337 322.194 219.331H322.117H322.017H321.884L321.674 219.42C321.197 219.63 320.644 219.863 320.123 220.04L294.842 202.979L294.997 221.181L320.278 238.242C320.799 238.065 321.386 237.832 321.84 237.622L322.228 237.445L322.383 237.367L322.494 237.312H322.582H322.638H322.693C322.837 237.234 322.97 237.134 323.114 237.046L323.225 236.957L323.491 236.747L323.557 236.691H323.613L323.856 236.47L323.967 236.381C324.067 236.27 324.178 236.171 324.266 236.06C324.357 235.961 324.442 235.858 324.521 235.75L324.61 235.65L324.787 235.406C324.809 235.367 324.835 235.33 324.864 235.295L325.031 235.029V234.93C325.064 234.877 325.094 234.821 325.119 234.764L325.285 234.398L325.341 234.287C325.341 234.187 325.418 234.088 325.463 233.988L325.64 233.589L325.784 233.29L325.85 233.179C325.873 233.117 325.903 233.058 325.939 233.002C325.961 232.955 325.987 232.911 326.017 232.869L326.127 232.703L326.216 232.57L326.271 232.492L326.404 232.326L326.482 232.238L326.67 232.038L326.914 231.817L327.025 231.739L327.224 231.595L327.357 231.507L327.601 231.362H327.7L328.099 231.163L328.642 230.964H328.775L329.251 230.764Z" fill="#424887"/>
<path d="M433.544 211.765L433.71 229.967L355.463 262.892L355.308 244.69L433.544 211.765Z" fill="#5760AA"/>
<path d="M294.277 203.5L326.637 189.885C327.549 190.43 328.4 191.073 329.174 191.801C330.692 193.795 328.731 196.51 331.268 198.227C334.403 200.332 342.08 199.877 348.45 197.196L348.971 196.975C354.942 194.305 357.346 190.583 354.3 188.533C352.361 187.226 349.015 187.303 346.29 186.805C344.917 186.572 343.575 186.181 342.291 185.642C341.512 185.232 340.77 184.753 340.075 184.212L372.48 170.586L433.522 211.765L355.308 244.69L330.06 227.629L330.37 227.485C331.455 227.014 332.564 226.604 333.694 226.255C337.461 225.435 342.557 226.443 345.803 225.07C349.791 223.297 348.982 219.265 344.074 215.952C339.167 212.64 331.888 211.255 327.845 212.95C325.352 214.058 325.452 215.797 324.521 217.226C323.94 218.086 323.185 218.814 322.305 219.364C322.183 219.431 321.729 219.663 321.197 219.918C320.666 220.173 320.167 220.361 319.646 220.539L294.277 203.5Z" fill="#6174B7"/>
<path d="M184.556 289.247C184.556 289.247 187.237 287.508 184.667 284.306C178.02 283.885 170.209 280.296 170.209 280.296C160.449 277.227 146.723 262.105 140.486 255.225C133.473 247.47 122.849 254.117 128.554 262.881C139.212 279.376 167.229 290.255 184.423 289.613" fill="#F79F7D"/>
<path d="M111.848 366.01C115.936 346.944 117.155 302.774 117.155 302.774C117.155 302.774 113.831 298.431 102.099 297.678C90.3669 296.925 91.1092 304.17 91.1646 303.217C91.1646 303.217 91.1646 334.47 96.5819 365.257C96.5819 365.257 104.979 371.051 111.848 366.01Z" fill="#053B6B"/>
<path d="M91.2865 305.4C90.1786 297.501 92.5273 289.546 93.7681 281.57H129.695C131.989 289.214 134.371 297.08 134.371 297.08C134.371 297.08 135.855 315.149 120.489 317.364C120.489 317.364 93.7237 321.962 91.2865 305.4Z" fill="#007FA2"/>
<path d="M70.2263 443.083C70.2263 458.293 97.9224 470.624 132.111 470.624C166.299 470.624 193.95 458.293 193.95 443.083C193.95 427.872 166.254 415.553 132.066 415.553C97.8781 415.553 70.2263 427.883 70.2263 443.083Z" fill="#9DAAD3"/>
<path d="M168.104 442.086L166.066 441.975C165.368 441.864 165.368 442.961 165.279 442.994C163.73 443.69 162.105 444.207 160.438 444.534C160.438 444.534 156.66 444.035 156.25 442.894L156.793 435.882C161.003 435.527 165.401 434.707 165.401 434.707L174.663 433.411C179.094 432.946 179.925 434.519 179.925 434.519C179.925 434.519 182.65 438.629 168.104 442.086Z" fill="#17181C"/>
<path d="M162.488 441.675C163.254 441.328 164.056 441.067 164.881 440.9C169.456 440.091 173.921 439.637 177.721 436.701C178.173 436.403 178.555 436.009 178.84 435.548C179.125 435.087 179.306 434.569 179.371 434.031C179.592 434.161 179.782 434.339 179.925 434.552C179.925 434.552 182.65 438.629 168.104 442.085L166.066 441.975C165.368 441.864 165.368 442.96 165.279 442.994C163.73 443.69 162.105 444.206 160.438 444.534C160.438 444.534 156.66 444.035 156.25 442.894L156.383 441.188C157.305 441.706 158.328 442.017 159.382 442.101C160.436 442.186 161.495 442.04 162.488 441.675Z" fill="#030308"/>
<path d="M106.242 440.335L104.215 440.236C103.517 440.125 103.528 441.222 103.428 441.255C101.879 441.951 100.254 442.467 98.5872 442.795C98.5872 442.795 94.8095 442.307 94.4106 441.155L94.9424 434.142C99.1522 433.788 103.55 432.968 103.55 432.968L112.812 431.672C117.243 431.207 118.074 432.78 118.074 432.78C118.074 432.78 120.833 436.89 106.242 440.335Z" fill="#17181C"/>
<path d="M100.615 439.936C101.381 439.59 102.184 439.33 103.008 439.161C107.583 438.363 112.048 437.909 115.859 434.973C116.309 434.669 116.689 434.273 116.974 433.811C117.258 433.349 117.441 432.831 117.509 432.292C117.732 432.421 117.918 432.604 118.052 432.824C118.052 432.824 120.788 436.89 106.242 440.357L104.215 440.235C103.517 440.124 103.528 441.221 103.428 441.254C101.879 441.95 100.254 442.467 98.5872 442.794C98.5872 442.794 94.8095 442.307 94.4106 441.155L94.5325 439.449C95.4514 439.963 96.4705 440.273 97.5203 440.357C98.57 440.441 99.6255 440.298 100.615 439.936V439.936Z" fill="#030308"/>
<path d="M105.456 434.652C106.974 432.846 111.948 366.331 111.948 366.331C112.779 356.106 95.7732 360.393 95.7732 360.393C93.3027 370.574 93.7015 372.491 92.926 385.12C92.6158 390.116 93.4024 431.439 93.2252 434.607C93.2252 434.607 101.113 439.836 105.456 434.652Z" fill="#053B6B"/>
<path d="M118.495 290.776C118.495 290.776 128.71 308.158 122.428 319.514C116.147 330.869 89.669 318.517 91.2976 305.355C93.1366 290.965 106.154 284.716 118.495 290.776Z" fill="#30528A"/>
<path d="M125.818 268.619C127.48 274.524 134.315 297.035 134.315 297.035C115.57 314.761 91.386 300.702 91.1091 298.032C90.81 294.831 94.4326 282.611 95.0308 269.439C95.0641 269.472 101.744 259.202 125.818 268.619Z" fill="#F6A382"/>
<path d="M148.374 362.709C146.38 343.31 132.565 293.823 132.565 293.823C132.565 293.823 128.532 290.1 117.055 293.014C105.578 295.928 104.348 310.85 104.115 309.931C104.115 309.931 117.409 341.25 135.135 368.846C135.168 368.846 143.721 373.233 148.374 362.709Z" fill="#30528A"/>
<path d="M165.634 433.91C165.302 431.572 148.052 362.077 148.052 362.077C143.987 353.502 132.321 362.531 132.321 362.531C132.196 371.293 133.629 380.007 136.553 388.267C138.137 393.008 152.805 435.904 153.824 438.939C153.824 438.928 162.488 441.676 165.634 433.91Z" fill="#30528A"/>
<path d="M81.5595 223.608C81.5595 223.608 79.7094 254.827 80.8837 267.434C80.8837 267.434 80.8837 273.162 90.9762 276.031C90.9762 276.031 94.6431 241.278 97.6232 225.757C97.6343 225.757 91.6741 214.246 81.5595 223.608Z" fill="#E69376"/>
<path d="M92.8263 231.673C90.8433 232.515 88.6079 232.541 86.606 231.744C84.6041 230.948 82.9975 229.393 82.1356 227.418C81.7202 226.438 81.5034 225.385 81.4977 224.32C81.492 223.255 81.6975 222.199 82.1024 221.214C82.5073 220.229 83.1036 219.335 83.8566 218.582C84.6096 217.829 85.5045 217.232 86.4895 216.827C88.4718 215.979 90.7096 215.95 92.7132 216.747C94.7167 217.544 96.3229 219.103 97.1802 221.082C97.5956 222.062 97.8124 223.115 97.8181 224.18C97.8238 225.245 97.6183 226.301 97.2134 227.286C96.8084 228.271 96.2122 229.165 95.4592 229.918C94.7062 230.671 93.8113 231.268 92.8263 231.673V231.673Z" fill="#E69376"/>
<path d="M88.5945 214.778C86.3638 215.415 84.4009 216.76 83.002 218.611C81.6031 220.461 80.8441 222.717 80.8395 225.036L79.6431 255.801C84.7284 258.856 90.6309 260.272 96.5488 259.856C96.5488 259.856 107.539 218.766 88.5945 214.778Z" fill="#FFD37C"/>
<path d="M116.401 195.235C116.401 195.235 116.401 206.225 117.42 217.182L102.963 214.778C103.554 213.238 103.782 211.582 103.631 209.94C103.479 208.297 102.951 206.711 102.088 205.306L116.401 195.235Z" fill="#F6A382"/>
<path d="M88.5943 214.778C84.9495 217.437 84.5285 223.796 85.8357 227.773C87.3203 232.337 87.9185 238.164 89.4141 244.756C91.4414 253.707 92.8041 260.598 95.0641 269.472C96.9363 276.817 126.449 270.901 126.449 270.901L137.04 234.752C137.04 234.752 138.857 225.313 130.305 222.167C125.271 219.455 120.059 217.086 114.706 215.077C108.879 213.105 106.774 212.917 100.792 213.282C100.792 213.282 92.7819 213.581 88.5943 214.778Z" fill="#F6A382"/>
<path d="M131.845 289.912C133.66 293.205 134.612 296.904 134.612 300.664C134.612 304.424 133.66 308.123 131.845 311.415C125.563 322.782 106.364 318.638 106.364 303.915C106.264 289.38 119.503 283.819 131.845 289.912Z" fill="#30528A"/>
<path d="M100.792 213.282C100.792 213.282 92.7821 213.581 88.6055 214.778C84.8167 217.547 84.8831 222.976 85.6143 227.097C87.0102 234.963 88.4283 242.906 89.1594 250.871C89.4807 254.394 90.3559 261.573 90.6218 265.096C90.8877 268.619 91.9623 270.414 95.4631 272.22C98.133 273.593 100.105 272.508 103.007 272.585C110.366 272.634 117.717 272.127 124.998 271.067C125.308 271.067 136.719 278.734 132.964 273.073L137.052 234.752C137.052 234.752 138.868 225.313 130.316 222.167C126.328 219.746 122.104 217.737 117.709 216.174C117.709 216.174 106.231 216.462 100.792 213.282Z" fill="#FFD37C"/>
<path d="M121.309 207.931L121.929 205.549L123.392 196.742C123.554 195.528 123.46 194.294 123.115 193.119C122.705 191.928 122.554 190.663 122.672 189.408C123.514 183.104 119.98 179.969 119.98 179.969C115.87 174.574 107.328 175.327 107.317 175.327C102.886 176.003 99.0192 177.831 96.8146 181.875C94.8094 185.542 93.7237 190.017 94.9091 194.061C96.2349 198.365 98.7047 202.229 102.055 205.239C104.182 207.278 106.364 207.521 109.145 208.563C111.667 209.284 114.276 209.657 116.9 209.671C117.941 209.726 120.955 209.305 121.309 207.931Z" fill="#F79F7D"/>
<path d="M119.614 183.625L118.262 189.087C116.7 189.774 116.047 190.372 116.29 192.411L116.789 196.92L115.559 197.385C115.659 195.579 113.155 195.557 113.155 195.557C111.316 195.457 111.006 197.019 111.117 198.515C111.383 202.426 110.009 208.618 106.685 209.715C105.389 210.147 102.952 210.59 102.542 208.84C102.044 206.702 97.9888 202.448 97.9888 202.448C93.1364 197.717 91.9067 189.685 94.2443 183.537C95.0277 181.588 96.2173 179.828 97.734 178.374C100.747 175.612 104.577 173.905 108.646 173.511C108.646 173.511 114.185 172.835 117.321 175.029C118.841 176.047 120.2 177.286 121.353 178.707C121.353 178.707 122.494 181.221 119.614 183.625Z" fill="#3F1900"/>
<path d="M115.138 201.229C114.744 201.571 114.242 201.763 113.72 201.772C112.877 201.747 112.074 201.402 111.476 200.808C110.877 200.213 110.527 199.413 110.496 198.57C110.434 198.166 110.454 197.753 110.555 197.357C110.656 196.961 110.836 196.589 111.085 196.264C111.333 195.939 111.644 195.668 112 195.466C112.356 195.265 112.749 195.137 113.155 195.091C113.535 195.079 113.913 195.143 114.267 195.28C114.621 195.417 114.944 195.624 115.216 195.889C115.586 196.35 115.852 196.886 115.995 197.46C116.139 198.033 116.156 198.631 116.047 199.213C116.01 199.975 115.686 200.696 115.138 201.229Z" fill="#F79F7D"/>
<path d="M113.92 196.775C113.754 195.812 111.859 196.853 112.191 197.385C112.423 197.673 112.704 197.917 113.022 198.105C113.201 198.213 113.353 198.36 113.468 198.534C113.583 198.708 113.658 198.906 113.687 199.113C113.687 199.18 113.687 199.346 113.687 199.39C113.454 199.578 112.579 198.681 112.358 198.504C112.18 198.294 112.057 198.044 111.999 197.775C111.941 197.507 111.95 197.228 112.025 196.964C112.068 196.727 112.197 196.515 112.388 196.368C112.578 196.22 112.816 196.149 113.056 196.166C113.499 196.166 113.953 196.166 113.953 196.72C113.953 196.72 113.953 196.82 113.953 196.775H113.92Z" fill="#E98A6F"/>
<path d="M113.355 197.817C113.543 197.595 113.753 197.751 113.964 197.895C114.154 198.024 114.291 198.216 114.352 198.437C114.51 198.983 114.459 199.568 114.208 200.077C114.107 200.258 113.961 200.411 113.785 200.519C113.608 200.628 113.407 200.689 113.199 200.697C112.601 200.697 112.391 200.21 112.346 199.711C112.346 199.578 112.346 199.268 112.424 199.18C112.502 199.091 112.668 199.29 112.767 199.379C112.92 199.485 113.102 199.539 113.288 199.534C113.454 199.529 113.618 199.487 113.765 199.41C113.913 199.333 114.041 199.224 114.141 199.091C114.172 199.038 114.197 198.982 114.219 198.925C114.219 199.257 114.219 199.324 114.219 199.157C114.196 199.072 114.154 198.992 114.097 198.925C113.942 198.714 113.709 198.57 113.543 198.36C113.377 198.149 113.299 197.928 113.399 197.817H113.355Z" fill="#E98A6F"/>
<path d="M194.792 285.924C194.05 284.816 194.704 284.24 193.186 284.184C191.447 284.129 189.862 283.276 188.755 283.309C186.705 283.364 178.972 285.17 184.168 289.591C185.376 290.632 188.832 295.252 191.225 293.878C194.759 291.851 193.552 292.604 195.357 288.206L194.792 285.924Z" fill="#F6A382"/>
<path d="M122.672 229.136C121.704 230.645 121.206 232.408 121.239 234.201C121.273 235.993 121.836 237.736 122.86 239.208C123.883 240.681 125.319 241.817 126.988 242.474C128.656 243.131 130.482 243.278 132.234 242.898C133.987 242.518 135.587 241.627 136.833 240.338C138.08 239.049 138.916 237.42 139.237 235.656C139.558 233.892 139.35 232.072 138.637 230.426C137.925 228.781 136.741 227.383 135.235 226.41C134.231 225.762 133.11 225.318 131.935 225.105C130.76 224.891 129.554 224.911 128.387 225.164C127.22 225.417 126.114 225.899 125.134 226.58C124.153 227.262 123.316 228.13 122.672 229.136V229.136Z" fill="#F6A382"/>
<path d="M134.049 262.77C135.224 275.155 135.988 305.466 135.988 305.466C131.557 317.187 89.7022 307.294 89.4585 304.613C89.1594 301.422 90.0235 278.9 90.666 265.728C97.221 262.036 104.518 259.855 112.023 259.343C119.529 258.831 127.054 260.002 134.049 262.77V262.77Z" fill="#FFD37C"/>
<path d="M128.344 221.137C139.378 224.305 140.774 237.599 140.774 237.599L145.759 259.535C145.759 259.535 133.218 269.505 125.574 266.68C125.574 266.68 119.348 250.129 117.398 233.622C117.376 233.622 117.509 221.502 128.344 221.137Z" fill="#FFD37C"/>
<path d="M121.94 183.503C120.689 184.511 119.104 183.847 117.675 183.503C115.737 185.785 118.063 188.068 115.116 189.175C113.283 189.672 111.412 190.017 109.521 190.206C108.148 190.427 106.752 190.106 105.766 191.136C104.78 192.167 105.711 195.723 104.448 196.387C102.232 197.551 100.504 191.513 97.7008 191.956C95.2968 192.366 94.8758 196.177 95.7177 198.049C95.5246 197.881 95.3127 197.736 95.0863 197.617C93.9784 194.637 92.4828 194.582 91.2199 192.466C89.2701 189.142 89.5914 189.962 89.2036 186.805C89.2036 186.805 89.5914 185.431 89.5914 185.409C90.5109 182.085 92.084 181.476 92.8374 180.058C93.7393 178.677 94.7586 177.376 95.8839 176.169C96.8256 174.951 97.2909 173.3 98.3766 172.214C100.221 170.62 102.518 169.644 104.946 169.423C107.383 169.112 109.688 170.619 112.092 170.198C113.078 170.021 114.008 169.09 114.994 169.179C116.202 169.245 117.044 170.442 118.085 170.918C120.024 171.793 123.082 171.439 124.732 172.801C126.383 174.164 126.161 176.491 125.042 178.341C124.4 179.382 123.126 179.98 122.55 181.055C122.439 181.398 122.007 183.47 121.94 183.503Z" fill="#3F1900"/>
<path d="M462.924 174.685C456.173 186.788 450.161 199.289 444.921 212.119C444.921 212.119 445.065 215.897 447.846 214.722C450.627 213.548 473.05 181.786 473.127 178.884C473.127 171.461 462.924 174.685 462.924 174.685Z" fill="#F6A382"/>
<path d="M439.559 219.663L441.986 218.832C441.986 218.832 437.875 221.358 435.992 220.361C435.992 220.361 435.56 220.239 435.992 219.553C437.882 218.913 439.713 218.113 441.465 217.16C439.441 218.358 437.265 219.279 434.995 219.896C434.84 219.877 434.694 219.812 434.577 219.708C434.46 219.604 434.378 219.466 434.342 219.314C434.306 219.162 434.317 219.002 434.374 218.857C434.432 218.711 434.532 218.587 434.663 218.5C433.666 218.434 434.242 217.614 434.242 217.614C434.959 216.93 435.738 216.315 436.568 215.775C438.425 214.447 440.211 213.023 441.919 211.51C441.919 211.51 438.828 210.623 439.371 208.973L443.98 209.837L448.289 211.033L449.519 213.315L446.539 217.06C444.951 218.383 443.201 219.5 441.332 220.383C441.332 220.383 435.46 221.979 439.559 219.663Z" fill="#F6A382"/>
<path d="M338.181 280.34C338.196 279.906 338.324 279.483 338.551 279.112C338.778 278.741 339.097 278.435 339.477 278.224C339.614 278.125 339.758 278.036 339.909 277.958L340.064 277.892L340.396 277.737H340.474H340.551L341.116 277.548C341.316 277.484 341.519 277.432 341.726 277.393H341.792H341.881L342.623 277.249H342.734L343.487 277.138H343.598L344.429 277.039H344.617L345.182 276.972L345.969 276.884H346.124L346.888 276.773L347.287 276.706L348.107 276.54H348.251L348.838 276.407L349.414 276.252L349.591 276.197L349.99 276.075L350.178 276.008L350.566 275.864L350.721 275.809L351.198 275.599C351.96 275.207 352.68 274.739 353.347 274.203L353.28 291.884C352.611 292.418 351.891 292.886 351.131 293.28L350.644 293.49H350.533C350.403 293.547 350.27 293.595 350.134 293.634L349.957 293.701L349.558 293.823H349.436H349.381L348.805 293.978L348.229 294.111H348.173H348.074L347.265 294.277H346.932H346.833L346.068 294.388H345.902L345.149 294.476L344.606 294.532H344.34L343.509 294.631H343.41L342.645 294.742H342.545C342.291 294.742 342.047 294.831 341.803 294.886H341.648L341.028 295.041C340.832 295.096 340.639 295.163 340.452 295.241L340.297 295.296L339.953 295.451L339.809 295.518C339.66 295.597 339.515 295.686 339.377 295.783C338.997 295.995 338.678 296.301 338.451 296.671C338.224 297.042 338.097 297.465 338.081 297.899L338.181 280.34Z" fill="#004E88"/>
<path d="M268.253 297.213C268.253 297.213 268.253 297.146 268.253 297.113C268.259 297.08 268.259 297.046 268.253 297.013V297.013C268.253 297.013 268.253 296.925 268.253 296.88C268.259 296.844 268.259 296.806 268.253 296.77V296.493L268.409 278.59V278.712C268.403 278.763 268.403 278.815 268.409 278.867C268.403 278.9 268.403 278.933 268.409 278.967C268.409 279.022 268.409 279.066 268.409 279.111C268.413 279.151 268.413 279.192 268.409 279.232C268.413 279.269 268.413 279.306 268.409 279.343C268.404 279.384 268.404 279.425 268.409 279.465C268.403 279.498 268.403 279.532 268.409 279.565V279.62C268.449 279.743 268.501 279.862 268.564 279.975V279.975C268.619 280.088 268.686 280.196 268.763 280.296V280.296C268.835 280.403 268.916 280.503 269.007 280.595L269.084 280.684L269.162 280.761L269.262 280.861L269.361 280.95L269.45 281.016L269.627 281.149L269.716 281.215L269.926 281.348H270.004L270.203 281.448L270.292 281.503L270.591 281.647C270.798 281.736 271.008 281.814 271.222 281.88L271.444 281.947L271.898 282.068H272.02C272.191 282.113 272.365 282.147 272.541 282.168H272.751L273.25 282.235H273.416L274.081 282.301H274.502H274.867H275.299H279.786H280.163H280.55H280.683H281.127H281.215C281.401 282.312 281.586 282.335 281.769 282.368H281.836L282.644 282.512H282.722H282.788H282.866H282.921H283.01H283.076H283.187H283.254H283.375H283.453L283.586 282.567H283.664H283.808H283.896H284.029H284.14H284.262H284.384H284.517H284.638H284.771H284.893H285.026H285.137L285.27 282.622H285.392L285.536 282.678H285.636L285.868 282.777L286.189 282.933L286.023 300.824L285.713 300.68L285.469 300.581H285.392L285.237 300.514H285.137L284.982 300.459H284.871L284.727 300.403H284.616L284.472 300.348H284.361L284.229 300.293H284.118L283.974 300.237H283.874H283.741H283.63H283.52H283.398H283.298H283.198H283.099H283.01H282.921H282.844H282.766H282.7H282.633H282.578V300.237L281.769 300.093L281.16 300.016H281.049H280.495H280.107H279.72H276.396H275.565H275.177H274.768H274.402H273.992L273.372 299.949H273.217H272.906H272.707H272.496L271.976 299.838H271.854L271.444 299.727L271.222 299.661L270.591 299.428L270.292 299.284L270.192 299.229L270.004 299.129H269.937L269.738 298.996L269.638 298.93L269.472 298.808C269.454 298.803 269.435 298.803 269.417 298.808L269.317 298.719L269.217 298.62L269.129 298.542V298.487C269.038 298.395 268.957 298.295 268.885 298.188V298.188C268.818 298.077 268.752 297.966 268.697 297.855C268.642 297.74 268.594 297.622 268.553 297.501V297.401L268.253 297.213Z" fill="#004E88"/>
<path d="M261.507 301.079L261.352 318.982L338.325 351.375L338.48 333.473L261.507 301.079Z" fill="#0061A2"/>
<path d="M338.48 333.472L338.325 351.375L398.37 310.85L398.536 292.947L338.48 333.472Z" fill="#004E88"/>
<path d="M398.536 292.992L366.685 279.587C365.796 280.132 364.964 280.767 364.204 281.481C362.708 283.442 364.636 286.112 362.132 287.796C359.063 289.868 351.497 289.424 345.238 286.788L344.717 286.566C338.845 283.941 336.486 280.274 339.477 278.268C341.382 276.972 344.684 277.061 347.354 276.562C348.704 276.35 350.024 275.978 351.286 275.454C352.048 275.063 352.768 274.595 353.436 274.059L321.552 260.643L296.681 277.426C296.171 277.249 295.573 277.028 295.152 276.817C294.731 276.607 294.144 276.341 294.044 276.274C293.168 275.733 292.414 275.016 291.828 274.169C290.887 272.762 290.975 271.045 288.66 270.004C284.594 268.298 277.449 269.627 272.563 272.918C267.677 276.208 266.935 280.141 270.724 281.78C274.047 283.187 279.066 282.19 282.777 283.01C283.906 283.347 285.016 283.747 286.101 284.206L286.422 284.362L261.529 301.079L338.513 333.461L398.536 292.992Z" fill="#196EAA"/>
<path d="M443.005 479.708C443.005 490.51 423.319 499.273 399.035 499.273C374.751 499.273 355.075 490.51 355.075 479.708C355.075 468.907 374.762 460.144 399.035 460.144C423.308 460.144 443.005 468.907 443.005 479.708Z" fill="#9DAAD3"/>
<path d="M376.745 479.11C376.745 479.11 372.081 478.257 373.421 482.068C373.421 482.068 384.311 486.743 391.922 485.69C391.922 485.69 397.262 485.502 396.431 479.708L396.52 475L389.341 476.351L389.751 480.782L376.745 479.11Z" fill="#E69376"/>
<path d="M396.409 479.708C396.423 480.446 396.167 481.163 395.689 481.724C393.817 483.94 390.15 483.94 387.524 483.796C383.349 483.51 379.199 482.929 375.105 482.057C374.219 481.868 373.997 481.58 373.997 481.314C374.234 480.737 374.615 480.23 375.104 479.842C375.593 479.454 376.173 479.198 376.789 479.099L372.823 478.589C369.156 478.467 367.494 479.298 366.641 479.852C365.622 482.755 370.563 484.693 370.563 484.693C374.317 486.072 378.168 487.168 382.085 487.973C382.085 487.973 396.021 491.296 397.705 486.976L396.409 479.708Z" fill="#4F1531"/>
<path d="M404.441 472.629C404.441 472.629 399.777 471.776 401.118 475.587C401.118 475.587 411.997 480.262 419.607 479.209C419.607 479.209 424.947 479.032 424.116 473.227L424.205 468.519L417.026 469.87L417.436 474.302L404.441 472.629Z" fill="#E69376"/>
<path d="M424.094 473.227C424.109 473.968 423.853 474.688 423.374 475.254C421.502 477.47 417.835 477.47 415.209 477.315C411.034 477.029 406.884 476.448 402.79 475.575C401.904 475.387 401.683 475.099 401.683 474.833C401.919 474.256 402.3 473.749 402.789 473.361C403.278 472.973 403.858 472.717 404.474 472.618L400.508 472.119C396.841 471.986 395.18 472.828 394.326 473.382C393.307 476.273 398.248 478.212 398.248 478.212C402.014 479.573 405.876 480.651 409.803 481.436C409.803 481.436 423.74 484.76 425.424 480.439L424.094 473.227Z" fill="#4F1531"/>
<path d="M403.145 346.778C403.145 349.407 403.924 351.977 405.385 354.163C406.846 356.35 408.922 358.054 411.351 359.06C413.78 360.066 416.453 360.329 419.032 359.816C421.611 359.303 423.98 358.037 425.839 356.178C427.698 354.319 428.964 351.95 429.477 349.371C429.99 346.792 429.727 344.119 428.721 341.69C427.715 339.261 426.011 337.185 423.825 335.724C421.638 334.263 419.068 333.483 416.439 333.483C412.913 333.483 409.531 334.884 407.038 337.377C404.545 339.87 403.145 343.252 403.145 346.778Z" fill="#00468A"/>
<path d="M424.836 410.844C424.836 410.844 424.648 414.168 418.643 414.268C418.643 414.268 412.949 416.217 410.49 408.806C400.818 379.625 403.377 349.182 403.377 349.182C403.377 349.182 417.037 341.571 429.766 346.778C429.766 346.778 427.706 385.076 424.836 410.844Z" fill="#00468A"/>
<path d="M410.49 408.806C410.49 408.806 415.187 471.864 415.619 474.113C416.905 474.947 418.408 475.385 419.94 475.371C421.473 475.357 422.968 474.893 424.238 474.036C424.238 470.945 427.562 445.154 427.938 440.313C428.525 431.993 429.534 421.479 424.271 409.515L410.49 408.806Z" fill="#00468A"/>
<path d="M386.261 412.772C386.261 412.772 384.976 415.863 379.282 413.946C379.282 413.946 373.266 413.891 373.41 406.091C373.942 375.36 387.402 343.509 387.402 343.509C387.402 343.509 402.58 342.058 412.883 351.187C412.861 351.187 397.517 389.374 386.261 412.772Z" fill="#0058A8"/>
<path d="M387.745 342.369C386.879 344.849 386.767 347.531 387.424 350.075C388.081 352.619 389.477 354.912 391.436 356.663C393.395 358.414 395.829 359.546 398.43 359.915C401.032 360.283 403.684 359.873 406.053 358.735C408.421 357.597 410.4 355.783 411.738 353.522C413.076 351.26 413.713 348.653 413.571 346.029C413.428 343.406 412.51 340.883 410.935 338.78C409.359 336.677 407.196 335.089 404.718 334.215C403.068 333.633 401.32 333.383 399.573 333.478C397.827 333.573 396.116 334.012 394.539 334.769C392.963 335.527 391.551 336.588 390.385 337.892C389.219 339.196 388.322 340.717 387.745 342.369V342.369Z" fill="#0058A8"/>
<path d="M429.766 344.839C428.16 330.038 420.737 323.169 420.737 323.169L395.013 319.923C395.013 319.923 387.912 332.265 387.169 344.839C390.249 353.225 401.206 355.673 401.206 355.673L409.537 358.144C409.537 358.144 428.392 355.275 429.766 344.839Z" fill="#0058A8"/>
<path d="M374.596 412.218C374.596 412.218 387.358 478.456 388.122 480.616C387.79 480.461 394.149 483.541 396.985 479.564C396.498 476.506 396.232 442.861 395.877 438.019C395.235 429.688 395.323 421.934 388.344 410.877C388.322 410.877 370.906 398.414 374.596 412.218Z" fill="#0058A8"/>
<path d="M431.672 296.227C431.672 296.227 426.985 301.766 417.668 315.06L419.275 317.796C419.275 317.796 435.239 309.753 440.324 300.724L431.672 296.227Z" fill="#E69376"/>
<path d="M418.477 276.485C418.477 276.485 430.498 302.707 437.71 301.71C437.71 301.71 440.202 301.865 440.701 299.993C440.701 299.993 445.797 295.473 424.604 262.858C423.83 261.984 422.837 261.333 421.726 260.972C420.616 260.612 419.429 260.555 418.289 260.809C418.289 260.809 411.853 265.063 418.477 276.485Z" fill="#E69376"/>
<path d="M412.03 255.957H399.035V269.76H412.03V255.957Z" fill="#F3B68E"/>
<path d="M391.003 256.267L390.515 254.051L389.54 245.964C389.44 244.833 389.607 243.694 390.028 242.64C390.496 241.596 390.72 240.46 390.682 239.317C390.476 237.749 390.665 236.154 391.232 234.678C391.799 233.202 392.725 231.891 393.928 230.864C398.359 226.155 406.9 227.285 406.9 227.285C411.332 228.116 415.098 229.988 417.093 233.788C418.887 237.223 419.729 241.355 418.311 245.011C416.69 248.941 414.005 252.34 410.556 254.826C408.341 256.566 406.125 256.688 403.244 257.474C400.673 258.006 398.046 258.218 395.423 258.106C394.282 258.083 391.28 257.541 391.003 256.267Z" fill="#F6A382"/>
<path d="M396.919 248.789C397.561 247.88 399.899 247.315 399.899 247.315C402.713 247.315 402.347 251.082 402.613 252.71C402.702 253.242 402.801 253.818 402.923 254.328C404.264 259.114 408.285 259.069 411.731 259.657L412.13 259.424C412.723 257.835 413.606 256.371 414.733 255.103C419.896 250.672 421.579 242.618 419.607 236.27C418.931 234.268 417.835 232.432 416.395 230.886C413.532 227.934 409.788 225.99 405.726 225.347C401.727 224.593 387.425 226.532 391.324 235.218C391.324 235.218 397.207 242.009 396.863 248.722" fill="#340E07"/>
<path d="M396.918 248.789C397.115 248.134 397.552 247.578 398.142 247.233C398.732 246.887 399.431 246.778 400.098 246.928C400.59 247.06 401.018 247.364 401.304 247.784C401.591 248.205 401.717 248.715 401.66 249.221C401.66 249.453 401.582 249.686 401.56 249.919C401.375 250.691 401.004 251.405 400.479 252C399.953 252.595 399.29 253.052 398.547 253.331" fill="#F7B68D"/>
<path d="M399.843 248.091C399.648 247.989 399.432 247.933 399.212 247.925C398.27 247.925 397.506 249.321 398.448 249.587C398.543 249.689 398.595 249.824 398.595 249.963C398.595 250.103 398.543 250.237 398.448 250.34C398.126 250.694 397.683 251.204 397.783 251.703C397.783 251.991 398.171 252.157 398.47 252.223C398.769 252.29 398.758 252.101 398.569 252.013C398.428 251.94 398.303 251.838 398.204 251.714V251.658C398.187 251.589 398.187 251.517 398.204 251.448C398.31 251.53 398.441 251.574 398.575 251.574C398.709 251.574 398.84 251.53 398.946 251.448C399.123 251.226 398.946 250.894 399.046 250.639C399.094 250.466 399.169 250.302 399.267 250.152C399.33 250.08 399.37 249.992 399.385 249.898C399.4 249.804 399.388 249.708 399.352 249.621C399.315 249.533 399.254 249.457 399.177 249.403C399.099 249.348 399.008 249.315 398.913 249.31H398.636C398.237 249.099 398.636 248.501 398.913 248.412C399.05 248.351 399.202 248.331 399.35 248.357C399.498 248.383 399.635 248.452 399.744 248.556C399.933 248.79 400.028 249.087 400.01 249.387C399.985 249.736 399.899 250.077 399.755 250.395L399.467 250.96C399.367 251.16 399.611 251.248 399.699 251.049C400.009 250.536 400.24 249.979 400.386 249.398C400.437 249.151 400.412 248.894 400.315 248.661C400.218 248.428 400.054 248.23 399.843 248.091Z" fill="#DC9D7E"/>
<path d="M396.918 248.789L397.218 248.334C397.334 248.169 397.468 248.017 397.616 247.88C397.795 247.7 397.996 247.544 398.215 247.415C398.467 247.273 398.74 247.172 399.023 247.116C399.331 247.073 399.644 247.096 399.943 247.182C400.104 247.234 400.26 247.301 400.408 247.382C400.546 247.461 400.673 247.557 400.785 247.67C401.023 247.901 401.195 248.192 401.283 248.512C401.356 248.855 401.356 249.21 401.283 249.553V249.841V249.908V250.052C401.248 250.22 401.204 250.387 401.15 250.55C401.036 250.858 400.888 251.151 400.707 251.425C400.536 251.675 400.347 251.912 400.142 252.134C399.804 252.467 399.433 252.764 399.034 253.021C398.889 253.122 398.737 253.214 398.58 253.298C398.755 253.259 398.926 253.203 399.09 253.131C399.543 252.952 399.968 252.71 400.353 252.411C400.616 252.208 400.854 251.973 401.062 251.713C401.307 251.425 401.505 251.1 401.649 250.749C401.73 250.568 401.793 250.378 401.837 250.184V250.04V249.974V249.874V249.597C401.919 249.177 401.919 248.744 401.837 248.323C401.706 247.899 401.465 247.517 401.139 247.215C401.051 247.149 400.973 247.071 400.885 247.016L400.585 246.839C400.4 246.756 400.207 246.689 400.009 246.639C399.624 246.539 399.22 246.539 398.835 246.639C398.217 246.806 397.686 247.203 397.351 247.747C397.226 247.922 397.119 248.107 397.029 248.301L396.918 248.789Z" fill="#DC9D7E"/>
<path d="M398.547 252.733C398.547 252.941 398.464 253.142 398.317 253.289C398.169 253.437 397.969 253.519 397.761 253.519C397.552 253.519 397.352 253.437 397.204 253.289C397.057 253.142 396.974 252.941 396.974 252.733C396.974 252.524 397.057 252.324 397.204 252.177C397.352 252.029 397.552 251.946 397.761 251.946C397.969 251.946 398.169 252.029 398.317 252.177C398.464 252.324 398.547 252.524 398.547 252.733V252.733Z" fill="white"/>
<path d="M397.949 253.109C397.783 253.106 397.626 253.039 397.51 252.92C397.394 252.802 397.329 252.643 397.329 252.478C397.35 252.361 397.406 252.254 397.489 252.169C397.572 252.084 397.678 252.026 397.794 252.001C397.585 252.001 397.385 252.084 397.238 252.232C397.09 252.379 397.007 252.579 397.007 252.788C397.007 252.997 397.09 253.197 397.238 253.344C397.385 253.492 397.585 253.575 397.794 253.575C398.003 253.575 398.203 253.492 398.35 253.344C398.498 253.197 398.58 252.997 398.58 252.788C398.521 252.9 398.428 252.99 398.315 253.048C398.202 253.105 398.074 253.127 397.949 253.109V253.109Z" fill="#E6E7E8"/>
<path d="M432.891 329.34L418.555 308.767C417.879 305.743 419.386 299.727 419.386 299.727L423.972 268.187C423.43 264.575 423.186 259.989 418.289 260.809C416.147 261.166 414.049 261.749 412.03 262.548C412.65 265.484 407.598 267.356 407.598 267.356C400.652 270.369 399.046 268.386 399.046 268.386C397.185 269.383 390.936 272.507 389.308 273.848C387.679 275.188 386.605 277.393 387.092 281.038L392.089 310.95L391.213 318.372L382.074 341.548C384.905 340.509 387.936 340.13 390.936 340.441C393.773 340.784 396.221 342.457 399.046 342.767C403.311 343.243 406.48 341.659 409.692 339.654C414.02 338.766 418.214 337.317 422.167 335.344H422.433C425.623 335.344 429.246 335.344 431.594 332.808C432.038 332.287 433.5 330.204 432.891 329.34Z" fill="#4F1531"/>
<path d="M383.392 321.696L383.47 285.381C384.356 275.41 389.297 273.848 389.297 273.848C399.267 272.674 397.75 291.186 397.75 291.186L393.584 322.46" fill="#F6A382"/>
<path d="M351.608 341.548C356.194 339.089 356.604 338.302 357.413 337.117C360.892 332.165 353.846 332.32 352.073 332.686C351.065 332.907 350.965 335.333 347.841 338.28C347.841 338.28 342.889 341.161 341.659 340.961C341.659 340.961 340.396 341.139 340.396 342.069C340.396 342.136 343.875 344.185 351.608 341.548Z" fill="#F6A382"/>
<path d="M384.145 317.863L353.048 334.891C351.708 338.635 353.436 339.167 353.436 339.167L377.509 332.243C387.79 329.484 391.911 325.175 391.911 325.175C391.911 325.175 396.409 322.062 390.671 317.42C390.626 317.42 388.012 315.359 384.145 317.863Z" fill="#F6A382"/>
<path d="M394.16 246.562C394.969 252.589 394.06 260.554 397.063 267.135C398.392 270.07 399.865 271.566 399.068 274.889C398.414 277.67 397.096 280.285 396.387 283.165C394.803 289.524 396.952 295.739 404.352 293.435C407.908 292.327 408.307 292.327 411.542 293.601C412.788 294.187 414.148 294.49 415.525 294.49C416.902 294.49 418.262 294.187 419.508 293.601C423.706 291.562 422.443 288.483 424.792 285.392C426.576 283.043 429.102 283.099 430.453 279.93C432.082 276.119 430.143 274.081 428.16 270.846C426.177 267.611 425.767 265.307 426.443 261.174C427.019 257.762 426.166 256.034 425.036 252.888C423.906 249.741 424.382 246.861 423.839 243.637C422.731 237.256 419.264 228.593 412.572 226.72C409.249 225.801 405.061 225.081 401.904 226.233C397.605 227.817 392.82 229.49 393.041 234.774C393.149 238.724 393.523 242.662 394.16 246.562Z" fill="#340E07"/>
<path d="M352.904 332.631C352.904 332.631 353.779 335.179 350.611 334.558L347.498 332.187C347.242 332.061 347.04 331.848 346.926 331.586C346.813 331.325 346.795 331.031 346.877 330.758C346.877 330.758 347.254 330.227 348.24 330.758L352.904 332.631Z" fill="#F6A382"/>
<path d="M423.496 48.0363C423.496 50.1595 422.866 52.235 421.687 54.0003C420.507 55.7657 418.831 57.1416 416.869 57.9541C414.907 58.7667 412.749 58.9792 410.667 58.565C408.584 58.1508 406.671 57.1284 405.17 55.6271C403.669 54.1258 402.646 52.213 402.232 50.1306C401.818 48.0482 402.031 45.8897 402.843 43.9282C403.656 41.9666 405.031 40.29 406.797 39.1104C408.562 37.9309 410.638 37.3013 412.761 37.3013C415.608 37.3013 418.338 38.4323 420.352 40.4455C422.365 42.4587 423.496 45.1892 423.496 48.0363V48.0363Z" fill="#7EC68C"/>
<path d="M88.7051 499.273C88.7073 501.398 88.0789 503.477 86.8994 505.246C85.72 507.014 84.0424 508.394 82.079 509.209C80.1156 510.024 77.9546 510.238 75.8693 509.825C73.7841 509.411 71.8683 508.389 70.3643 506.886C68.8603 505.384 67.8357 503.469 67.4202 501.384C67.0047 499.299 67.2168 497.138 68.0298 495.174C68.8429 493.21 70.2202 491.531 71.9876 490.349C73.755 489.168 75.8331 488.538 77.959 488.538C79.3697 488.536 80.7668 488.813 82.0705 489.352C83.3742 489.89 84.5589 490.681 85.557 491.678C86.555 492.675 87.3467 493.859 87.8869 495.162C88.4271 496.465 88.7051 497.862 88.7051 499.273V499.273Z" fill="#7EC68C"/>
<path d="M77.9038 129.751C77.9037 131.272 77.4526 132.759 76.6072 134.024C75.7619 135.288 74.5605 136.274 73.155 136.855C71.7495 137.437 70.203 137.588 68.7113 137.291C67.2196 136.993 65.8496 136.26 64.7748 135.184C63.7 134.107 62.9687 132.736 62.6732 131.244C62.3778 129.752 62.5317 128.206 63.1153 126.801C63.6989 125.396 64.6861 124.196 65.9519 123.353C67.2177 122.509 68.7053 122.06 70.2264 122.063C71.2355 122.063 72.2348 122.261 73.1669 122.648C74.0991 123.034 74.946 123.601 75.659 124.315C76.3721 125.029 76.9374 125.877 77.3225 126.81C77.7077 127.742 77.9052 128.742 77.9038 129.751V129.751Z" fill="#F28CB5"/>
<path d="M520.676 187.437C520.676 188.958 520.225 190.445 519.38 191.709C518.534 192.974 517.333 193.959 515.927 194.541C514.522 195.122 512.975 195.274 511.484 194.976C509.992 194.679 508.622 193.945 507.547 192.869C506.473 191.793 505.741 190.422 505.446 188.93C505.15 187.437 505.304 185.891 505.888 184.487C506.471 183.082 507.459 181.882 508.724 181.038C509.99 180.195 511.478 179.746 512.999 179.748C515.036 179.751 516.989 180.562 518.428 182.004C519.868 183.445 520.676 185.399 520.676 187.437V187.437Z" fill="#F28CB5"/>
<path d="M300.425 121.01C304.671 121.01 308.114 117.567 308.114 113.321C308.114 109.075 304.671 105.633 300.425 105.633C296.179 105.633 292.737 109.075 292.737 113.321C292.737 117.567 296.179 121.01 300.425 121.01Z" fill="#97C3E8"/>
<path d="M45.5546 291.252C45.5546 292.773 45.1037 294.26 44.2589 295.524C43.4141 296.788 42.2133 297.774 40.8084 298.356C39.4035 298.938 37.8577 299.09 36.3662 298.793C34.8748 298.496 33.5049 297.764 32.4296 296.689C31.3544 295.614 30.6221 294.244 30.3255 292.752C30.0288 291.261 30.1811 289.715 30.763 288.31C31.3449 286.905 32.3304 285.705 33.5947 284.86C34.8591 284.015 36.3456 283.564 37.8662 283.564C39.9053 283.564 41.8609 284.374 43.3027 285.816C44.7446 287.258 45.5546 289.213 45.5546 291.252Z" fill="#A3DDF5"/>
<path d="M526.835 341.792C526.835 343.313 526.384 344.8 525.54 346.064C524.695 347.328 523.494 348.314 522.089 348.896C520.684 349.478 519.138 349.63 517.647 349.333C516.156 349.037 514.786 348.304 513.71 347.229C512.635 346.154 511.903 344.784 511.606 343.292C511.31 341.801 511.462 340.255 512.044 338.85C512.626 337.445 513.611 336.245 514.876 335.4C516.14 334.555 517.626 334.104 519.147 334.104C521.186 334.104 523.142 334.914 524.584 336.356C526.025 337.798 526.835 339.753 526.835 341.792V341.792Z" fill="#A3DDF5"/>
<path d="M250.45 32.9585C250.45 34.4791 249.999 35.9656 249.155 37.2299C248.31 38.4943 247.109 39.4797 245.704 40.0617C244.299 40.6436 242.753 40.7958 241.262 40.4992C239.771 40.2025 238.401 39.4703 237.325 38.395C236.25 37.3198 235.518 35.9498 235.221 34.4584C234.925 32.967 235.077 31.4211 235.659 30.0162C236.241 28.6113 237.226 27.4106 238.49 26.5658C239.755 25.7209 241.241 25.27 242.762 25.27C244.801 25.27 246.757 26.08 248.198 27.5219C249.64 28.9638 250.45 30.9194 250.45 32.9585V32.9585Z" fill="#FFD37C"/>
<path d="M491.318 460.996C491.321 462.517 490.871 464.005 490.028 465.271C489.184 466.537 487.984 467.524 486.58 468.107C485.175 468.691 483.629 468.845 482.137 468.549C480.645 468.254 479.274 467.523 478.197 466.448C477.121 465.373 476.388 464.003 476.09 462.511C475.792 461.02 475.944 459.473 476.526 458.068C477.107 456.662 478.093 455.461 479.357 454.615C480.622 453.77 482.109 453.319 483.63 453.319C485.667 453.319 487.621 454.127 489.062 455.567C490.504 457.006 491.315 458.959 491.318 460.996Z" fill="#FFD37C"/>
<path d="M17.9915 351.198H42.0871" stroke="#699ED4" stroke-width="12.47" stroke-miterlimit="10"/>
<path d="M45.6765 351.198H57.7299" stroke="#699ED4" stroke-width="12.47" stroke-miterlimit="10"/>
<path d="M484.926 402.613H512.987" stroke="#699ED4" stroke-width="13.46" stroke-miterlimit="10"/>
<path d="M517.175 402.613H531.212" stroke="#699ED4" stroke-width="13.46" stroke-miterlimit="10"/>
<path d="M258.637 494.099H234.531" stroke="#699ED4" stroke-width="12.47" stroke-miterlimit="10"/>
<path d="M230.941 494.099H218.899" stroke="#699ED4" stroke-width="12.47" stroke-miterlimit="10"/>
<path d="M462.171 77.25H472.286" stroke="#699ED4" stroke-width="12.47" stroke-miterlimit="10"/>
<path d="M474.889 77.25H483.63" stroke="#699ED4" stroke-width="12.47" stroke-miterlimit="10"/>
<path d="M450.438 77.25H459.179" stroke="#699ED4" stroke-width="12.47" stroke-miterlimit="10"/>
<path d="M495.24 247.282H530.746" stroke="#699ED4" stroke-width="12.47" stroke-miterlimit="10"/>
<path d="M310.917 66.9473L314.273 70.3151" stroke="#699ED4" stroke-width="12.47" stroke-miterlimit="10"/>
<path d="M316.644 72.6748L320.001 76.0427" stroke="#699ED4" stroke-width="12.47" stroke-miterlimit="10"/>
<path d="M320.001 66.9473L316.644 70.3151" stroke="#699ED4" stroke-width="12.47" stroke-miterlimit="10"/>
<path d="M314.273 72.6748L310.917 76.0427" stroke="#699ED4" stroke-width="12.47" stroke-miterlimit="10"/>
<path d="M28.7708 180.025L32.1275 183.393" stroke="#699ED4" stroke-width="12.47" stroke-miterlimit="10"/>
<path d="M34.4983 185.764L37.8661 189.12" stroke="#699ED4" stroke-width="12.47" stroke-miterlimit="10"/>
<path d="M37.8661 180.025L34.4983 183.393" stroke="#699ED4" stroke-width="12.47" stroke-miterlimit="10"/>
<path d="M32.1275 185.764L28.7708 189.12" stroke="#699ED4" stroke-width="12.47" stroke-miterlimit="10"/>
<path d="M281.802 389.518L285.159 392.875" stroke="#699ED4" stroke-width="12.47" stroke-miterlimit="10"/>
<path d="M287.53 395.246L290.887 398.602" stroke="#699ED4" stroke-width="12.47" stroke-miterlimit="10"/>
<path d="M290.887 389.518L287.53 392.875" stroke="#699ED4" stroke-width="12.47" stroke-miterlimit="10"/>
<path d="M285.159 395.246L281.802 398.602" stroke="#699ED4" stroke-width="12.47" stroke-miterlimit="10"/>
<path d="M121.32 114.208C121.32 115.032 121.076 115.837 120.618 116.522C120.16 117.207 119.51 117.741 118.749 118.056C117.987 118.372 117.15 118.454 116.342 118.293C115.534 118.133 114.792 117.736 114.209 117.153C113.627 116.571 113.23 115.829 113.069 115.021C112.908 114.213 112.991 113.375 113.306 112.614C113.621 111.853 114.155 111.202 114.84 110.744C115.525 110.287 116.331 110.042 117.155 110.042C118.259 110.042 119.319 110.481 120.1 111.263C120.881 112.044 121.32 113.103 121.32 114.208V114.208Z" stroke="#699ED4" stroke-width="12.47" stroke-miterlimit="10"/>
<path d="M396.464 133.772C396.464 134.596 396.22 135.402 395.762 136.087C395.305 136.772 394.654 137.306 393.893 137.621C393.132 137.936 392.294 138.019 391.486 137.858C390.678 137.697 389.936 137.3 389.353 136.718C388.771 136.135 388.374 135.393 388.213 134.585C388.053 133.777 388.135 132.94 388.45 132.178C388.766 131.417 389.3 130.767 389.985 130.309C390.67 129.851 391.475 129.607 392.299 129.607C393.404 129.607 394.463 130.046 395.244 130.827C396.025 131.608 396.464 132.668 396.464 133.772V133.772Z" stroke="#699ED4" stroke-width="12.47" stroke-miterlimit="10"/>
</svg>
