<svg width="190" height="99" viewBox="0 0 190 99" fill="none" xmlns="http://www.w3.org/2000/svg">
<path d="M112.256 53.7307H104.502C104.462 53.7307 104.431 53.6976 104.431 53.659V0.0716727C104.431 0.0312419 104.464 0 104.502 0H106.748C109.831 0 112.327 2.50855 112.327 5.6015V53.659C112.329 53.6995 112.296 53.7307 112.256 53.7307Z" fill="#FFB347"/>
<path d="M104.411 54.5377C104.411 55.5834 105.255 56.4288 106.294 56.4288H107.925C110.345 56.4288 112.307 54.4587 112.307 52.0292V22.9814L104.411 30.9096V54.5377Z" fill="#F5A028"/>
<path d="M92.8721 24.1885L74.6579 34.7464C73.8891 35.1912 73.415 36.0145 73.415 36.9058V56.5828C73.415 57.4741 73.8891 58.2974 74.6579 58.7421L92.8721 69.3001L111.086 58.7421C111.855 58.2974 112.329 57.4741 112.329 56.5828V36.9058C112.329 36.0145 111.855 35.1912 111.086 34.7464L92.8721 24.1885ZM103.163 54.1808L94.1405 59.4111C93.3553 59.8668 92.3889 59.8668 91.6036 59.4111L82.5816 54.1808C81.7964 53.725 81.3132 52.8852 81.3132 51.9736V41.5149C81.3132 40.6052 81.7964 39.7635 82.5816 39.3078L91.6036 34.0775C92.3889 33.6217 93.3553 33.6217 94.1405 34.0775L103.163 39.3078C103.948 39.7635 104.431 40.6034 104.431 41.5149V51.9736C104.431 52.8833 103.948 53.725 103.163 54.1808Z" fill="#FFB347"/>
<path d="M104.431 52.0013C104.431 52.8945 103.955 53.7215 103.185 54.1681L94.1168 59.4241C93.3462 59.8706 92.3962 59.8706 91.6238 59.4241L82.556 54.1681C81.7854 53.7215 81.3095 52.8945 81.3095 52.0013V41.4893C81.3095 40.5962 81.7854 39.7692 82.556 39.3226L84.2565 38.3357L76.318 33.7817L74.6579 34.7447C73.8873 35.1913 73.4114 36.0183 73.4114 36.9115V56.5792C73.4114 57.4724 73.8873 58.2994 74.6579 58.7459L91.622 68.5798C92.3926 69.0264 93.3425 69.0264 94.115 68.5798L111.039 58.7698C111.835 58.3085 112.326 57.454 112.326 56.5314V54.4401L104.429 49.91V52.0013H104.431Z" fill="#F5A028"/>
<path d="M92.8721 60.1464L82.5597 54.1682C81.7873 53.7198 81.3114 52.8928 81.3114 51.9978V41.4895C81.3114 40.5945 81.7873 39.7675 82.5597 39.3191L91.6238 34.0649C92.3962 33.6165 92.8721 32.7895 92.8721 31.8945V24.1851L74.6634 34.7412C73.8909 35.1896 73.415 36.0166 73.415 36.9116V56.5757C73.415 57.4707 73.8909 58.2977 74.6634 58.7461L81.5292 62.7267V62.7542L91.8416 68.7325C92.614 69.1809 93.0899 70.0079 93.0899 70.9029V81.4112C93.0899 82.3062 92.614 83.1332 91.8416 83.5816L82.7775 88.8358C82.0051 89.2842 81.5292 90.1112 81.5292 91.0062V98.712L99.7379 88.1558C100.51 87.7074 100.986 86.8804 100.986 85.9854V66.54C100.986 65.5109 100.439 64.5589 99.5512 64.0443" fill="black"/>
<path d="M31.8616 38.1942V54.1809C31.8616 55.6126 31.0983 56.3807 29.57 56.4818H2.29165C0.763273 56.3789 0 55.6126 0 54.1809V33.3003C0 32.0837 0.763273 31.4331 2.29165 31.3523H25.0306L31.8616 38.1942ZM25.0306 40.497L22.7536 38.1961H6.81637V49.6417H25.0306V40.497ZM14.4253 29.2811L13.08 30.6318H8.12876L11.9653 26.7817H16.9311L20.7658 30.6318H15.7688L14.4253 29.2811Z" fill="black"/>
<path d="M67.9715 38.1945V56.4821H61.1405V40.4954L58.8635 38.1945H42.9262V56.4821H36.1117V33.3006C36.1117 32.084 36.875 31.4334 38.4033 31.3525H61.1423L67.9715 38.1945Z" fill="black"/>
<path d="M149.219 31.3469V38.1889H124.174V40.4898H149.219V47.3318H124.174V49.6327H149.219V56.4747H119.649C118.12 56.3718 117.357 55.6054 117.357 54.1738V33.2968C117.357 32.0802 118.12 31.4296 119.649 31.3488H149.219V31.3469Z" fill="#FFB347"/>
<path d="M173.06 49.2685H163.37V31.2327H155.918V49.2685V54.3958C155.918 55.5481 156.883 56.4817 158.074 56.4817H163.37H176.338L187.514 45.6609L189.449 43.7883V33.3994V31.2327H181.998V40.6144L173.06 49.2685Z" fill="#FFB347"/>
<path d="M10.5047 71.7466L8.9287 75.7492H8.00801L6.99947 73.5053C6.37347 74.8928 6.03668 75.6426 5.98726 75.7492H5.06657L3.49426 71.7466H4.61263L5.56078 74.1393L6.65169 71.7466H7.3509L8.44182 74.1393L9.38996 71.7466H10.5047Z" fill="black"/>
<path d="M17.6726 75.74H12.2198V71.7466H17.6726V72.7849H13.2577V73.2278H16.6989V74.2662H13.2577V74.6962H17.6726V75.74Z" fill="black"/>
<path d="M31.0105 74.4808C31.0105 74.841 30.8915 75.1405 30.6517 75.3795C30.4138 75.6184 30.1154 75.7397 29.7603 75.7397H25.8305V74.6958H29.7512C29.8994 74.6958 29.9745 74.6241 29.9745 74.4808C29.9745 74.3374 29.8994 74.2658 29.7512 74.2658H26.8079C26.4565 74.2658 26.1581 74.1463 25.9165 73.9056C25.6749 73.6667 25.5541 73.3634 25.5541 72.9977C25.5541 72.6375 25.6749 72.3398 25.9165 72.1009C26.1581 71.862 26.4546 71.7444 26.8079 71.7444H30.7414V72.7827H26.8189C26.6706 72.7827 26.5956 72.8544 26.5956 72.9977C26.5956 73.1503 26.6706 73.2256 26.8189 73.2256H29.7622C30.1173 73.2256 30.4138 73.3451 30.6536 73.5821C30.8915 73.8229 31.0105 74.1224 31.0105 74.4808Z" fill="#FFB347"/>
<path d="M39.0605 75.7492H38.0263V74.7624H34.6474V75.7492H33.6078V71.7466H34.6474V73.7185H38.0263V71.7466H39.0605V75.7492Z" fill="#FFB347"/>
<path d="M47.7163 75.7399H46.393L45.7816 74.9331H43.0928L42.5382 75.7399H41.2588L44.0666 71.7556H44.6303L47.7163 75.7399ZM45.0312 73.9812L44.3723 73.1358L43.7701 73.9812H45.0312Z" fill="#FFB347"/>
<path d="M55.5468 73.2532C55.5468 73.8321 55.2595 74.2548 54.6829 74.5249L55.2814 75.7563H54.121L53.6359 74.7602C53.6066 74.7602 52.7738 74.7602 51.1338 74.7602V75.7471H50.0941V71.7444H53.5645C54.077 71.7444 54.52 71.8638 54.8952 72.1046C55.3308 72.3803 55.5468 72.7625 55.5468 73.2532ZM54.5127 73.2532C54.5127 73.0952 54.3882 72.972 54.1374 72.8856C53.9507 72.825 53.7604 72.7938 53.5664 72.7938H51.1338V73.7182H53.5572C53.7585 73.7182 53.9507 73.6869 54.1374 73.6226C54.3864 73.5381 54.5127 73.4149 54.5127 73.2532Z" fill="#FFB347"/>
<path d="M63.4121 75.74H57.9594V71.7466H63.4121V72.7849H58.9972V73.2278H62.4383V74.2662H58.9972V74.6962H63.4121V75.74V75.74Z" fill="#FFB347"/>
<path d="M121.155 71.7466L119.579 75.7492H118.659L117.65 73.5053C117.024 74.8928 116.687 75.6427 116.638 75.7492H115.717L114.145 71.7466H115.263L116.211 74.1394L117.302 71.7466H118.002L119.092 74.1394L120.041 71.7466H121.155Z" fill="black"/>
<path d="M128.323 75.7398H122.87V71.7463H128.323V72.7847H123.908V73.2276H127.349V74.2659H123.908V74.6959H128.323V75.7398Z" fill="black"/>
<path d="M141.755 73.7457C141.755 74.3209 141.566 74.7969 141.191 75.1755C140.815 75.5522 140.341 75.7415 139.772 75.7415H136.302V73.7475V71.748H139.772C140.343 71.748 140.815 71.9373 141.191 72.3141C141.566 72.689 141.755 73.1668 141.755 73.7457ZM140.718 73.7457C140.718 73.4535 140.632 73.2219 140.459 73.051C140.285 72.8801 140.054 72.7919 139.763 72.7864H137.339V74.6976H139.763C140.054 74.6921 140.286 74.6058 140.459 74.4385C140.631 74.2713 140.718 74.0397 140.718 73.7457Z" fill="#FFB347"/>
<path d="M149.475 75.7398H144.022V71.7463H149.475V72.7847H145.062V73.2276H148.503V74.2659H145.062V74.6959H149.477V75.7398H149.475Z" fill="#FFB347"/>
<path d="M157.9 71.7463L155.093 75.749H154.52L151.712 71.7463H152.991L154.807 74.31L156.619 71.7463H157.9Z" fill="#FFB347"/>
<path d="M165.623 75.7398H160.17V71.7463H165.623V72.7847H161.208V73.2276H164.649V74.2659H161.208V74.6959H165.623V75.7398Z" fill="black"/>
<path d="M173.431 75.7398H168.218V71.7463H169.258V74.6959H173.431V75.7398Z" fill="black"/>
<path d="M181.99 73.7458C181.99 74.321 181.802 74.797 181.427 75.1756C181.051 75.5523 180.577 75.7416 180.002 75.7416H177.636C177.063 75.7416 176.587 75.5523 176.208 75.1756C175.829 74.7988 175.641 74.3229 175.641 73.7458C175.641 73.1669 175.829 72.6891 176.208 72.3124C176.587 71.9356 177.063 71.7463 177.636 71.7463H180.002C180.575 71.7463 181.049 71.9356 181.427 72.3124C181.804 72.6891 181.99 73.1669 181.99 73.7458ZM180.956 73.7458C180.956 73.4536 180.87 73.2221 180.696 73.0511C180.522 72.8802 180.29 72.792 179.995 72.7865H177.638C177.343 72.792 177.11 72.8802 176.938 73.0511C176.766 73.2221 176.68 73.4536 176.68 73.7458C176.68 74.0417 176.766 74.2732 176.938 74.4423C177.11 74.6114 177.343 74.6959 177.638 74.6959H179.995C180.29 74.6959 180.522 74.6114 180.696 74.4423C180.87 74.2732 180.956 74.0399 180.956 73.7458Z" fill="black"/>
<path d="M190 73.2533C190 73.7679 189.775 74.1593 189.323 74.4276C188.953 74.65 188.494 74.7603 187.943 74.7603H185.585V75.7398H184.545V71.7463H187.943C188.494 71.7463 188.953 71.8529 189.323 72.0661C189.775 72.3344 190 72.7314 190 73.2533ZM188.966 73.2533C188.966 73.1008 188.876 72.985 188.695 72.9023C188.541 72.8233 188.351 72.7847 188.124 72.7847H185.587V73.7091H188.124C188.351 73.7091 188.541 73.6742 188.695 73.6043C188.876 73.5198 188.966 73.404 188.966 73.2533Z" fill="black"/>
</svg>
